<?xml version="1.0" standalone="no"?>
<!DOCTYPE svg PUBLIC "-//W3C//DTD SVG 20010904//EN"
 "http://www.w3.org/TR/2001/REC-SVG-20010904/DTD/svg10.dtd">
<svg version="1.0" xmlns="http://www.w3.org/2000/svg"
 width="546.000000pt" height="423.000000pt" viewBox="0 0 546.000000 423.000000"
 preserveAspectRatio="xMidYMid meet">

<g transform="translate(0.000000,423.000000) scale(0.100000,-0.100000)"
fill="#000000" stroke="none">
<path d="M4881 3354 c-821 -261 -1554 -635 -2104 -1076 -363 -291 -708 -665
-922 -1001 l-17 -27 436 0 c341 0 437 3 440 13 2 6 23 66 46 132 256 728 842
1307 1799 1779 104 51 256 122 338 156 235 99 233 103 -16 24z"/>
<path d="M3710 2428 c-152 -113 -370 -344 -449 -473 -11 -18 10 -61 182 -370
l195 -350 440 -3 440 -2 -214 387 c-118 214 -277 499 -352 636 -75 136 -139
247 -142 247 -3 0 -48 -32 -100 -72z"/>
<path d="M1936 201 c-39 -43 -39 -159 0 -188 23 -16 56 -17 72 -1 10 10 15 10
22 -2 7 -10 10 3 10 43 0 57 0 57 -30 57 -16 0 -30 -4 -30 -10 0 -5 6 -10 14
-10 31 0 31 -52 1 -64 -43 -16 -74 53 -55 123 13 49 34 58 64 26 21 -23 36
-24 36 -3 0 17 -41 48 -63 48 -13 0 -32 -9 -41 -19z"/>
<path d="M2105 195 c-21 -20 -25 -34 -25 -83 0 -71 25 -112 69 -112 47 0 66
32 66 112 0 61 -3 72 -24 89 -31 26 -57 24 -86 -6z m71 -20 c30 -45 10 -154
-28 -155 -23 0 -38 36 -38 90 0 40 5 64 16 74 21 22 31 20 50 -9z"/>
<path d="M3132 195 c-65 -82 -7 -234 70 -186 17 11 22 11 29 -1 5 -8 9 9 9 45
0 57 0 57 -30 57 -16 0 -30 -4 -30 -10 0 -5 6 -10 14 -10 20 0 26 -12 20 -38
-7 -26 -30 -35 -54 -22 -38 20 -33 149 6 164 9 3 25 -5 38 -19 21 -23 36 -24
36 -3 0 17 -41 48 -64 48 -14 0 -33 -11 -44 -25z"/>
<path d="M3969 201 c-21 -17 -24 -28 -24 -89 0 -80 19 -112 65 -112 30 0 60
27 60 53 0 23 -17 21 -25 -2 -3 -11 -13 -22 -23 -26 -48 -18 -74 113 -30 157
l21 21 23 -26 c13 -15 26 -27 29 -27 13 0 3 38 -13 53 -24 22 -54 21 -83 -2z"/>
<path d="M4131 201 c-37 -37 -39 -130 -5 -179 19 -28 67 -29 94 -2 29 29 29
136 -1 174 -24 31 -61 34 -88 7z m75 -35 c3 -12 4 -46 2 -76 -4 -63 -26 -86
-55 -57 -26 26 -25 133 0 152 24 17 46 9 53 -19z"/>
<path d="M910 193 c1 -10 9 -56 18 -103 23 -110 41 -114 60 -13 8 40 18 71 22
68 5 -3 14 -37 21 -75 8 -46 17 -70 26 -70 7 0 13 2 13 4 0 2 9 48 20 101 19
93 19 126 0 96 -4 -8 -11 -37 -14 -65 -11 -84 -22 -85 -37 -4 -19 98 -39 99
-58 0 -7 -40 -16 -70 -19 -67 -3 3 -10 35 -16 72 -6 36 -17 68 -24 71 -7 2
-12 -4 -12 -15z"/>
<path d="M1124 193 c3 -10 12 -57 22 -106 20 -104 37 -114 54 -29 22 110 25
113 39 42 17 -89 21 -100 35 -100 7 0 20 40 32 105 15 77 18 105 9 105 -7 0
-17 -31 -25 -77 -14 -86 -20 -83 -40 20 -16 80 -35 75 -51 -13 -7 -39 -16 -73
-19 -75 -4 -3 -13 29 -19 70 -9 55 -17 75 -27 75 -10 0 -13 -6 -10 -17z"/>
<path d="M1340 196 c0 -8 7 -45 15 -83 9 -37 18 -78 20 -90 3 -13 11 -23 19
-23 9 0 18 25 26 75 7 41 16 75 20 75 4 0 13 -34 20 -75 8 -48 17 -75 26 -75
15 0 17 7 39 118 16 80 14 113 -5 82 -5 -7 -12 -40 -15 -72 -4 -32 -10 -60
-15 -63 -4 -2 -13 29 -20 71 -10 59 -16 74 -29 72 -11 -2 -20 -24 -28 -72 -7
-38 -15 -71 -17 -74 -3 -2 -8 13 -11 34 -16 91 -21 108 -33 112 -7 2 -12 -3
-12 -12z"/>
<path d="M1661 173 c-6 -21 -19 -68 -29 -105 -16 -56 -17 -68 -5 -68 7 0 16
14 20 30 5 26 10 30 38 30 29 0 34 -4 40 -30 4 -17 13 -30 21 -30 10 0 13 6
10 18 -3 9 -15 56 -27 105 -17 70 -25 87 -40 87 -13 0 -21 -11 -28 -37z m43
-55 c7 -36 5 -38 -19 -38 -29 0 -28 -2 -14 57 13 49 22 44 33 -19z"/>
<path d="M1790 105 l0 -105 50 0 c38 0 50 4 50 15 0 11 -11 15 -40 15 l-40 0
0 90 c0 53 -4 90 -10 90 -6 0 -10 -42 -10 -105z"/>
<path d="M2230 200 c0 -5 11 -10 25 -10 25 0 25 0 25 -95 0 -78 3 -95 15 -95
12 0 15 17 15 95 0 88 1 95 20 95 11 0 20 5 20 10 0 6 -27 10 -60 10 -33 0
-60 -4 -60 -10z"/>
<path d="M2370 105 c0 -87 3 -105 15 -105 11 0 15 12 15 46 0 41 2 45 22 42
15 -2 26 -16 37 -45 8 -24 21 -43 28 -43 16 0 16 1 -3 50 -15 38 -15 43 1 73
13 25 14 38 6 60 -10 25 -15 27 -66 27 l-55 0 0 -105z m95 74 c4 -5 4 -21 1
-35 -5 -19 -13 -24 -36 -24 -28 0 -30 3 -30 35 0 32 2 35 29 35 17 0 33 -5 36
-11z"/>
<path d="M2547 111 c-31 -115 -31 -114 -15 -109 7 3 15 15 18 29 5 20 12 24
40 24 31 0 35 -3 38 -27 3 -27 32 -41 32 -15 0 10 -27 117 -46 180 -3 9 -13
17 -23 17 -14 0 -23 -21 -44 -99z m59 12 c6 -41 5 -43 -18 -43 -25 0 -25 1
-15 51 11 57 23 54 33 -8z"/>
<path d="M2690 104 l0 -107 46 6 c25 2 53 11 61 19 38 39 34 156 -7 178 -10 5
-37 10 -59 10 l-41 0 0 -106z m97 49 c13 -33 14 -43 2 -78 -11 -32 -19 -41
-41 -43 l-28 -3 0 80 c0 80 0 81 26 81 20 0 28 -8 41 -37z"/>
<path d="M2860 105 c0 -87 3 -105 15 -105 12 0 15 18 15 105 0 87 -3 105 -15
105 -12 0 -15 -18 -15 -105z"/>
<path d="M2940 105 c0 -127 18 -142 22 -18 l3 87 37 -85 c53 -122 68 -119 68
15 0 86 -3 106 -15 106 -11 0 -15 -17 -17 -72 l-3 -73 -30 72 c-21 51 -35 73
-47 73 -16 0 -18 -12 -18 -105z"/>
<path d="M3280 105 c0 -87 3 -105 15 -105 11 0 15 12 15 50 l0 50 35 0 c19 0
35 5 35 10 0 6 -16 10 -35 10 -33 0 -35 2 -35 35 0 34 1 35 40 35 22 0 40 5
40 10 0 6 -25 10 -55 10 l-55 0 0 -105z"/>
<path d="M3420 105 c0 -63 4 -105 10 -105 6 0 10 42 10 105 0 63 -4 105 -10
105 -6 0 -10 -42 -10 -105z"/>
<path d="M3490 105 c0 -87 3 -105 15 -105 11 0 15 12 15 45 0 37 3 45 18 45
12 0 23 -14 33 -43 9 -23 23 -43 32 -45 15 -3 15 2 -3 43 -18 42 -19 49 -5 68
18 26 20 68 3 85 -7 7 -34 12 -60 12 l-48 0 0 -105z m85 50 c0 -25 -4 -30 -27
-33 -26 -3 -28 -1 -28 33 0 34 2 36 28 33 23 -3 27 -8 27 -33z"/>
<path d="M3650 105 c0 -63 4 -105 10 -105 6 0 10 37 10 92 0 50 3 88 7 85 3
-4 16 -44 28 -89 12 -45 26 -83 32 -85 6 -2 21 38 34 89 l24 93 3 -93 c2 -73
6 -92 17 -92 12 0 15 20 15 105 0 104 0 105 -24 105 -21 0 -26 -8 -42 -70 -10
-39 -21 -70 -25 -70 -4 0 -15 31 -24 70 -15 62 -20 70 -41 70 -24 0 -24 -1
-24 -105z"/>
<path d="M4280 105 c0 -63 4 -105 10 -105 6 0 10 37 10 92 0 50 3 88 8 84 4
-4 16 -44 27 -88 12 -45 25 -83 31 -85 6 -2 22 38 36 89 l26 93 1 -92 c1 -76
4 -93 16 -93 12 0 15 18 15 105 0 104 0 105 -24 105 -21 0 -26 -8 -41 -70 -9
-39 -20 -70 -24 -70 -4 0 -15 31 -25 70 -16 62 -20 70 -42 70 -24 0 -24 -1
-24 -105z"/>
<path d="M1560 20 c0 -11 7 -20 15 -20 8 0 15 9 15 20 0 11 -7 20 -15 20 -8 0
-15 -9 -15 -20z"/>
<path d="M3870 20 c0 -11 7 -20 15 -20 8 0 15 9 15 20 0 11 -7 20 -15 20 -8 0
-15 -9 -15 -20z"/>
</g>
</svg>
