<svg id="svg" xmlns="http://www.w3.org/2000/svg" xmlns:xlink="http://www.w3.org/1999/xlink" width="400" height="160" viewBox="0, 0, 400,160"><g id="svgg"><path id="path0" d="M65.500 32.750 L 65.500 65.500 66.042 65.506 C 66.340 65.510,66.883 65.551,67.250 65.598 C 67.617 65.645,68.466 65.754,69.137 65.841 C 70.744 66.050,92.294 66.041,94.333 65.831 C 95.204 65.741,96.236 65.621,96.627 65.565 L 97.336 65.462 97.293 38.870 C 97.260 18.470,97.204 12.262,97.051 12.212 C 96.942 12.175,96.697 11.824,96.507 11.431 C 96.274 10.950,95.957 10.613,95.539 10.401 C 95.197 10.228,94.778 9.973,94.608 9.835 C 94.377 9.646,93.691 9.563,91.858 9.500 L 89.417 9.417 89.367 8.379 C 89.297 6.900,89.166 6.833,86.319 6.833 L 84.046 6.833 83.954 5.811 C 83.816 4.298,83.748 4.261,80.994 4.192 L 78.667 4.135 78.667 3.734 C 78.667 3.514,78.605 3.333,78.529 3.333 C 78.453 3.333,78.423 3.116,78.462 2.850 C 78.560 2.184,77.982 1.607,77.317 1.705 C 77.051 1.744,76.833 1.714,76.833 1.638 C 76.833 1.562,76.008 1.500,75.000 1.500 L 73.167 1.500 73.167 0.750 L 73.167 0.000 69.333 0.000 L 65.500 0.000 65.500 32.750 M68.454 94.404 C 67.650 94.512,66.956 94.615,66.913 94.633 C 66.869 94.652,66.533 94.667,66.167 94.667 L 65.500 94.667 65.500 121.071 C 65.500 143.609,65.535 147.511,65.736 147.712 C 65.876 147.852,66.366 147.961,66.941 147.979 C 68.130 148.018,68.136 148.025,68.199 149.210 C 68.227 149.738,68.318 150.163,68.402 150.154 C 68.485 150.144,68.620 150.256,68.702 150.402 C 68.826 150.624,69.223 150.667,71.175 150.667 L 73.500 150.667 73.511 151.208 C 73.554 153.231,73.670 153.302,76.958 153.322 L 78.833 153.333 78.833 153.833 C 78.833 154.108,78.898 154.333,78.977 154.333 C 79.056 154.333,79.086 154.513,79.044 154.734 C 78.940 155.277,79.556 155.893,80.100 155.789 C 80.320 155.747,80.500 155.777,80.500 155.856 C 80.500 155.935,81.321 156.000,82.323 156.000 C 84.248 156.000,84.323 156.029,84.354 156.777 C 84.398 157.852,84.892 158.424,85.833 158.490 C 85.971 158.500,86.890 158.552,87.875 158.606 L 89.667 158.704 89.667 159.352 L 89.667 160.000 93.500 160.000 L 97.333 160.000 97.333 127.352 L 97.333 94.705 96.625 94.602 C 94.149 94.243,91.606 94.174,81.333 94.190 C 73.634 94.203,69.441 94.272,68.454 94.404 M311.500 105.672 C 311.500 105.761,311.406 105.815,311.292 105.792 C 311.177 105.769,311.102 105.844,311.125 105.958 C 311.148 106.073,311.092 106.167,311.002 106.167 C 310.894 106.167,310.837 111.248,310.837 120.750 C 310.837 129.224,310.900 135.333,310.986 135.333 C 311.068 135.333,311.096 135.483,311.048 135.667 C 310.993 135.879,311.044 136.001,311.189 136.003 C 311.378 136.005,311.379 136.029,311.193 136.147 C 311.019 136.257,311.070 136.389,311.424 136.742 C 311.778 137.096,311.910 137.147,312.020 136.973 C 312.138 136.788,312.162 136.789,312.164 136.978 C 312.166 137.123,312.287 137.174,312.500 137.118 C 312.683 137.070,312.833 137.097,312.833 137.177 C 312.833 137.259,317.193 137.323,322.750 137.323 C 328.307 137.323,332.667 137.259,332.667 137.177 C 332.667 137.097,332.817 137.070,333.000 137.118 C 333.213 137.174,333.334 137.123,333.336 136.978 C 333.338 136.789,333.362 136.788,333.480 136.973 C 333.590 137.147,333.722 137.096,334.076 136.742 C 334.430 136.389,334.481 136.257,334.307 136.147 C 334.121 136.029,334.122 136.005,334.311 136.003 C 334.456 136.001,334.507 135.879,334.452 135.667 C 334.404 135.483,334.424 135.333,334.497 135.333 C 334.570 135.333,334.640 134.606,334.653 133.717 C 334.667 132.828,334.713 132.065,334.755 132.022 C 334.798 131.979,334.833 132.467,334.833 133.106 C 334.833 134.568,334.934 134.667,336.434 134.667 C 337.553 134.667,337.630 134.689,337.548 135.000 C 337.500 135.183,337.538 135.333,337.632 135.333 C 337.725 135.333,337.763 135.483,337.715 135.667 C 337.659 135.879,337.710 136.001,337.856 136.003 C 338.045 136.005,338.045 136.029,337.860 136.147 C 337.686 136.257,337.737 136.389,338.091 136.742 C 338.445 137.096,338.576 137.147,338.687 136.973 C 338.804 136.788,338.829 136.789,338.831 136.978 C 338.832 137.123,338.954 137.174,339.167 137.118 C 339.350 137.070,339.500 137.094,339.500 137.172 C 339.500 137.249,341.563 137.313,344.083 137.313 C 346.604 137.313,348.667 137.249,348.667 137.172 C 348.667 137.094,348.817 137.070,349.000 137.118 C 349.213 137.174,349.334 137.123,349.336 136.978 C 349.338 136.789,349.362 136.788,349.480 136.973 C 349.590 137.147,349.722 137.096,350.076 136.742 C 350.430 136.389,350.481 136.257,350.307 136.147 C 350.121 136.029,350.122 136.005,350.311 136.003 C 350.456 136.001,350.507 135.879,350.452 135.667 C 350.404 135.483,350.441 135.333,350.535 135.333 C 350.629 135.333,350.666 135.183,350.618 135.000 C 350.537 134.689,350.613 134.667,351.732 134.667 C 353.227 134.667,353.333 134.565,353.333 133.133 L 353.333 132.000 354.333 132.000 C 355.703 132.000,356.000 131.699,356.000 130.306 C 356.000 129.740,356.036 129.314,356.081 129.359 C 356.126 129.403,356.173 130.466,356.186 131.720 C 356.199 132.974,356.273 134.000,356.350 134.000 C 356.427 134.000,356.443 134.120,356.387 134.267 C 356.331 134.414,356.389 134.600,356.517 134.681 C 356.704 134.799,356.692 134.829,356.458 134.831 C 356.294 134.832,356.166 134.960,356.164 135.125 C 356.162 135.358,356.132 135.370,356.014 135.184 C 355.828 134.890,355.260 135.078,355.438 135.374 C 355.518 135.507,355.457 135.496,355.269 135.344 C 355.013 135.136,354.955 135.136,354.823 135.344 C 354.740 135.476,354.671 135.515,354.669 135.433 C 354.668 135.350,354.518 135.416,354.337 135.580 C 354.156 135.744,354.044 135.936,354.088 136.008 C 354.133 136.080,354.075 136.170,353.959 136.209 C 353.799 136.263,353.808 136.351,354.000 136.588 C 354.147 136.770,354.163 136.845,354.040 136.771 C 353.913 136.695,353.789 136.755,353.725 136.923 C 353.666 137.075,353.713 137.259,353.828 137.330 C 353.995 137.433,353.994 137.474,353.822 137.531 C 353.692 137.575,353.651 137.720,353.719 137.896 C 353.788 138.075,353.912 138.139,354.040 138.062 C 354.163 137.988,354.147 138.064,354.000 138.245 C 353.808 138.482,353.799 138.571,353.959 138.625 C 354.075 138.663,354.133 138.754,354.088 138.825 C 354.044 138.897,354.156 139.090,354.337 139.254 C 354.518 139.418,354.668 139.484,354.669 139.401 C 354.671 139.318,354.740 139.358,354.823 139.489 C 354.955 139.697,355.013 139.697,355.269 139.489 C 355.457 139.337,355.518 139.326,355.438 139.460 C 355.260 139.756,355.828 139.943,356.014 139.649 C 356.106 139.504,356.163 139.951,356.164 140.842 C 356.167 142.597,356.228 142.667,357.768 142.667 C 358.887 142.667,358.963 142.689,358.882 143.000 C 358.834 143.183,358.871 143.333,358.965 143.333 C 359.059 143.333,359.096 143.483,359.048 143.667 C 358.993 143.879,359.044 144.001,359.189 144.003 C 359.378 144.005,359.379 144.029,359.193 144.147 C 359.019 144.257,359.070 144.389,359.424 144.742 C 359.778 145.096,359.910 145.147,360.020 144.973 C 360.138 144.788,360.162 144.789,360.164 144.978 C 360.166 145.123,360.287 145.174,360.500 145.118 C 360.683 145.070,360.833 145.096,360.833 145.174 C 360.833 145.253,363.046 145.315,365.750 145.311 C 368.454 145.308,370.667 145.243,370.667 145.168 C 370.667 145.093,370.805 145.068,370.975 145.112 C 371.374 145.216,371.883 144.707,371.779 144.308 C 371.734 144.139,371.762 144.000,371.840 144.000 C 371.918 144.000,371.965 143.700,371.944 143.333 L 371.907 142.667 373.329 142.650 C 374.110 142.640,375.031 142.634,375.375 142.635 C 375.719 142.637,376.000 142.577,376.000 142.502 C 376.000 142.426,376.139 142.401,376.308 142.445 C 376.707 142.549,377.216 142.040,377.112 141.642 C 377.068 141.472,377.087 141.333,377.155 141.333 C 377.224 141.333,377.295 140.456,377.313 139.383 C 377.351 137.118,377.264 137.315,378.234 137.288 C 378.655 137.275,379.000 137.201,379.000 137.123 C 379.000 137.045,379.056 137.010,379.125 137.047 C 379.289 137.134,379.835 136.557,379.708 136.431 C 379.655 136.377,379.688 136.333,379.783 136.333 C 379.878 136.333,379.957 136.127,379.960 135.875 C 379.962 135.623,379.972 134.598,379.982 133.597 C 380.001 131.674,380.148 131.226,380.187 132.971 C 380.200 133.537,380.275 134.000,380.355 134.000 C 380.435 134.000,380.481 134.094,380.458 134.208 C 380.435 134.323,380.510 134.398,380.625 134.375 C 380.740 134.352,380.833 134.413,380.833 134.510 C 380.833 134.608,380.965 134.674,381.125 134.658 C 381.963 134.573,383.396 134.685,383.184 134.819 C 382.890 135.005,383.078 135.573,383.374 135.395 C 383.507 135.315,383.496 135.377,383.344 135.564 C 383.136 135.820,383.136 135.879,383.344 136.010 C 383.476 136.093,383.515 136.163,383.433 136.164 C 383.350 136.166,383.416 136.315,383.580 136.496 C 383.744 136.677,383.936 136.789,384.008 136.745 C 384.080 136.701,384.170 136.759,384.209 136.874 C 384.263 137.034,384.351 137.025,384.588 136.833 C 384.770 136.687,384.845 136.670,384.771 136.793 C 384.593 137.089,385.162 137.276,385.348 136.983 C 385.462 136.802,385.495 136.799,385.497 136.968 C 385.499 137.088,385.575 137.140,385.667 137.083 C 385.758 137.027,385.833 137.055,385.833 137.145 C 385.833 137.250,387.446 137.311,390.250 137.312 C 392.679 137.313,394.667 137.250,394.667 137.172 C 394.667 137.095,394.805 137.068,394.975 137.112 C 395.374 137.216,395.883 136.707,395.779 136.308 C 395.734 136.139,395.762 136.000,395.840 136.000 C 395.918 136.000,395.965 135.700,395.944 135.333 L 395.907 134.667 397.079 134.647 C 397.723 134.636,398.344 134.639,398.458 134.654 C 398.573 134.669,398.667 134.565,398.667 134.424 C 398.667 134.235,398.843 134.167,399.333 134.167 L 400.000 134.167 400.000 125.167 L 400.000 116.167 399.333 116.167 L 398.667 116.167 398.667 115.033 C 398.667 113.570,398.585 113.501,396.842 113.497 C 395.951 113.496,395.504 113.440,395.649 113.348 C 395.943 113.162,395.756 112.593,395.460 112.771 C 395.326 112.851,395.337 112.790,395.489 112.603 C 395.697 112.347,395.697 112.288,395.489 112.157 C 395.358 112.073,395.318 112.004,395.401 112.003 C 395.484 112.001,395.418 111.852,395.254 111.671 C 395.090 111.489,394.897 111.377,394.825 111.422 C 394.754 111.466,394.663 111.408,394.625 111.293 C 394.571 111.132,394.482 111.142,394.245 111.333 C 394.064 111.480,393.988 111.497,394.062 111.374 C 394.139 111.245,394.075 111.121,393.896 111.052 C 393.728 110.988,393.576 111.023,393.538 111.135 C 393.493 111.271,393.395 111.252,393.217 111.074 C 392.942 110.799,386.833 110.738,386.833 111.010 C 386.833 111.079,386.695 111.099,386.525 111.055 C 386.126 110.951,385.617 111.460,385.721 111.858 C 385.766 112.028,385.738 112.167,385.660 112.167 C 385.582 112.167,385.535 112.467,385.556 112.833 L 385.593 113.500 384.171 113.517 C 383.390 113.526,382.469 113.533,382.125 113.531 C 381.781 113.530,381.500 113.590,381.500 113.665 C 381.500 113.740,381.361 113.766,381.192 113.721 C 380.793 113.617,380.284 114.126,380.388 114.525 C 380.432 114.695,380.411 114.833,380.340 114.833 C 380.269 114.833,380.211 115.211,380.211 115.672 C 380.211 116.134,380.164 116.559,380.106 116.617 C 380.010 116.712,379.973 116.285,379.960 114.958 C 379.957 114.706,379.886 114.500,379.801 114.500 C 379.716 114.500,379.677 114.444,379.714 114.375 C 379.801 114.211,379.224 113.665,379.097 113.792 C 379.044 113.845,379.000 113.812,379.000 113.717 C 379.000 113.622,378.794 113.543,378.542 113.540 C 378.290 113.538,376.094 113.528,373.662 113.518 L 369.241 113.500 369.278 112.833 C 369.298 112.467,369.251 112.167,369.173 112.167 C 369.095 112.167,369.068 112.028,369.112 111.858 C 369.216 111.460,368.707 110.951,368.308 111.055 C 368.139 111.099,368.000 111.086,368.000 111.026 C 368.000 110.966,366.837 110.917,365.417 110.917 C 363.996 110.917,362.833 110.966,362.833 111.026 C 362.833 111.086,362.695 111.099,362.525 111.055 C 362.126 110.951,361.617 111.460,361.721 111.858 C 361.766 112.028,361.738 112.167,361.660 112.167 C 361.582 112.167,361.535 112.467,361.556 112.833 L 361.593 113.500 360.213 113.500 C 359.011 113.500,358.833 113.538,358.831 113.792 C 358.829 114.025,358.799 114.037,358.681 113.851 C 358.495 113.557,357.927 113.744,358.105 114.040 C 358.185 114.174,358.123 114.163,357.936 114.011 C 357.680 113.803,357.621 113.803,357.490 114.011 C 357.407 114.142,357.337 114.182,357.336 114.099 C 357.334 114.016,357.185 114.082,357.004 114.246 C 356.823 114.410,356.711 114.603,356.755 114.675 C 356.799 114.746,356.741 114.837,356.626 114.875 C 356.466 114.929,356.475 115.018,356.667 115.255 C 356.813 115.436,356.830 115.512,356.707 115.438 C 356.411 115.260,356.224 115.828,356.517 116.014 C 356.702 116.131,356.689 116.162,356.451 116.164 C 356.287 116.166,356.164 116.260,356.179 116.375 C 356.244 116.874,356.158 119.047,356.077 118.966 C 356.028 118.917,355.974 118.492,355.959 118.021 C 355.943 117.551,355.866 117.167,355.788 117.167 C 355.711 117.167,355.677 117.110,355.714 117.042 C 355.801 116.878,355.224 116.332,355.097 116.458 C 355.044 116.512,355.000 116.483,355.000 116.395 C 355.000 116.307,354.655 116.225,354.234 116.212 C 353.287 116.185,353.337 116.245,353.311 115.111 C 353.299 114.592,353.224 114.167,353.145 114.167 C 353.065 114.167,353.019 114.073,353.042 113.958 C 353.065 113.844,352.990 113.769,352.875 113.792 C 352.760 113.815,352.667 113.765,352.667 113.682 C 352.667 113.599,351.639 113.521,350.383 113.510 C 347.745 113.485,347.982 113.574,347.954 112.599 C 347.942 112.178,347.868 111.833,347.790 111.833 C 347.711 111.833,347.677 111.777,347.714 111.708 C 347.801 111.545,347.224 110.998,347.097 111.125 C 347.044 111.178,347.000 111.142,347.000 111.043 C 347.000 110.922,346.054 110.864,344.083 110.864 C 342.314 110.864,341.167 110.927,341.167 111.025 C 341.167 111.114,341.110 111.156,341.042 111.120 C 340.878 111.032,340.332 111.610,340.458 111.736 C 340.512 111.790,340.483 111.833,340.395 111.833 C 340.307 111.833,340.225 112.178,340.212 112.599 C 340.184 113.574,340.421 113.485,337.783 113.510 C 336.528 113.521,335.500 113.599,335.500 113.682 C 335.500 113.765,335.406 113.815,335.292 113.792 C 335.177 113.769,335.102 113.844,335.125 113.958 C 335.148 114.073,335.102 114.167,335.022 114.167 C 334.942 114.167,334.867 114.592,334.855 115.111 C 334.829 116.245,334.879 116.185,333.933 116.212 C 333.511 116.225,333.167 116.299,333.167 116.377 C 333.167 116.455,333.110 116.490,333.042 116.453 C 332.878 116.366,332.332 116.943,332.458 117.069 C 332.512 117.123,332.478 117.167,332.384 117.167 C 332.289 117.167,332.210 117.373,332.207 117.625 C 332.205 117.877,332.195 120.052,332.185 122.458 L 332.167 126.833 326.750 126.833 L 321.333 126.833 321.314 116.792 C 321.304 111.269,321.308 106.619,321.325 106.458 C 321.341 106.298,321.275 106.167,321.177 106.167 C 321.080 106.167,321.019 106.073,321.042 105.958 C 321.065 105.844,320.990 105.769,320.875 105.792 C 320.760 105.815,320.667 105.761,320.667 105.672 C 320.667 105.572,318.922 105.511,316.083 105.511 C 313.244 105.511,311.500 105.572,311.500 105.672 M345.500 122.575 C 345.500 123.582,345.555 123.849,345.792 123.987 C 345.972 124.091,346.000 124.158,345.865 124.162 C 345.745 124.164,345.693 124.242,345.750 124.333 C 345.807 124.425,345.784 124.500,345.699 124.500 C 345.614 124.500,345.543 124.706,345.540 124.958 C 345.538 125.210,345.528 125.735,345.518 126.125 L 345.500 126.833 344.083 126.833 C 342.519 126.833,342.639 126.933,342.626 125.625 C 342.624 125.373,342.544 125.167,342.450 125.167 C 342.355 125.167,342.322 125.123,342.375 125.069 C 342.502 124.943,341.955 124.366,341.792 124.453 C 341.723 124.490,341.667 124.455,341.667 124.377 C 341.667 124.299,341.322 124.225,340.901 124.212 C 339.739 124.179,339.799 124.000,340.972 124.000 C 342.365 124.000,342.667 123.703,342.667 122.333 L 342.667 121.333 344.083 121.333 L 345.500 121.333 345.500 122.575 M369.500 124.083 L 369.500 126.833 366.750 126.833 L 364.000 126.833 364.000 124.083 L 364.000 121.333 366.750 121.333 L 369.500 121.333 369.500 124.083 M390.882 121.667 C 390.834 121.850,390.871 122.000,390.965 122.000 C 391.059 122.000,391.096 122.150,391.048 122.333 C 390.993 122.546,391.044 122.668,391.189 122.669 C 391.378 122.671,391.379 122.696,391.193 122.813 C 391.019 122.924,391.070 123.055,391.424 123.409 C 391.778 123.763,391.910 123.814,392.020 123.640 C 392.138 123.455,392.162 123.455,392.164 123.644 C 392.166 123.790,392.287 123.841,392.500 123.785 C 392.683 123.737,392.833 123.775,392.833 123.868 C 392.833 123.962,392.983 124.000,393.167 123.952 C 393.439 123.881,393.500 123.946,393.497 124.307 C 393.496 124.628,393.454 124.686,393.348 124.517 C 393.162 124.224,392.593 124.411,392.771 124.707 C 392.845 124.830,392.770 124.813,392.588 124.667 C 392.351 124.475,392.263 124.466,392.209 124.626 C 392.170 124.741,392.080 124.799,392.008 124.755 C 391.936 124.711,391.744 124.823,391.580 125.004 C 391.416 125.185,391.350 125.334,391.433 125.336 C 391.515 125.337,391.476 125.407,391.344 125.490 C 391.136 125.621,391.136 125.680,391.344 125.936 C 391.496 126.123,391.507 126.185,391.374 126.105 C 391.078 125.927,390.890 126.495,391.184 126.681 C 391.328 126.772,390.763 126.829,389.708 126.831 L 388.000 126.833 388.000 124.083 L 388.000 121.333 389.484 121.333 C 390.887 121.333,390.964 121.352,390.882 121.667 " stroke="none" fill="#f4a42c" fill-rule="evenodd"></path><path id="path1" d="M65.556 65.986 C 65.781 67.114,66.815 68.000,67.905 68.000 C 68.151 68.000,68.395 68.137,68.500 68.333 C 68.598 68.517,68.788 68.667,68.923 68.667 C 69.057 68.667,69.167 68.746,69.167 68.843 C 69.167 68.940,69.242 68.973,69.333 68.917 C 69.425 68.860,69.500 68.906,69.500 69.018 C 69.500 69.130,69.544 69.179,69.597 69.125 C 69.650 69.072,69.948 69.134,70.258 69.264 C 71.249 69.678,91.629 69.606,92.985 69.184 C 93.543 69.010,94.000 68.903,94.000 68.946 C 94.000 68.989,94.118 68.906,94.262 68.762 C 94.406 68.618,94.623 68.500,94.744 68.500 C 94.865 68.500,95.008 68.387,95.060 68.250 C 95.113 68.112,95.335 68.000,95.553 68.000 C 96.494 68.000,97.275 67.101,97.317 65.970 L 97.333 65.523 96.292 65.947 C 94.255 66.776,93.311 66.832,81.402 66.833 C 71.030 66.833,70.315 66.814,69.152 66.510 C 66.958 65.935,66.090 65.693,65.765 65.567 C 65.481 65.457,65.459 65.501,65.556 65.986 M13.352 66.066 C 12.928 66.301,12.516 66.919,12.506 67.333 C 12.503 67.471,12.632 67.321,12.792 67.000 C 12.959 66.666,13.333 66.292,13.667 66.125 C 13.987 65.965,14.137 65.836,14.000 65.839 C 13.862 65.843,13.571 65.944,13.352 66.066 M2.685 84.733 C 2.262 84.967,1.849 85.586,1.839 86.000 C 1.836 86.138,1.965 85.987,2.125 85.667 C 2.292 85.333,2.666 84.959,3.000 84.792 C 3.321 84.632,3.471 84.503,3.333 84.506 C 3.196 84.509,2.904 84.611,2.685 84.733 M284.448 87.134 C 283.834 87.774,283.816 88.295,284.421 87.899 C 284.653 87.747,284.995 87.408,285.182 87.145 C 285.662 86.472,285.090 86.464,284.448 87.134 M70.222 90.909 C 69.932 91.036,69.651 91.095,69.597 91.042 C 69.544 90.988,69.500 91.036,69.500 91.149 C 69.500 91.261,69.425 91.307,69.333 91.250 C 69.242 91.193,69.167 91.226,69.167 91.323 C 69.167 91.421,69.057 91.500,68.923 91.500 C 68.788 91.500,68.598 91.650,68.500 91.833 C 68.395 92.030,68.151 92.167,67.905 92.167 C 66.815 92.167,65.781 93.053,65.556 94.181 C 65.459 94.665,65.481 94.710,65.765 94.599 C 66.090 94.474,66.958 94.232,69.152 93.657 C 70.315 93.352,71.030 93.333,81.402 93.334 C 93.311 93.335,94.255 93.391,96.292 94.219 L 97.333 94.643 97.317 94.197 C 97.275 93.066,96.494 92.167,95.553 92.167 C 95.335 92.167,95.113 92.054,95.060 91.917 C 95.008 91.779,94.865 91.667,94.744 91.667 C 94.623 91.667,94.406 91.549,94.262 91.405 C 94.118 91.261,94.000 91.178,94.000 91.221 C 94.000 91.263,93.543 91.156,92.985 90.983 C 91.647 90.566,71.163 90.500,70.222 90.909 M364.713 110.956 C 365.152 110.990,365.827 110.990,366.213 110.955 C 366.600 110.920,366.242 110.892,365.417 110.892 C 364.592 110.893,364.275 110.922,364.713 110.956 M398.667 134.333 C 398.667 134.425,398.967 134.500,399.333 134.500 C 399.700 134.500,400.000 134.425,400.000 134.333 C 400.000 134.242,399.700 134.167,399.333 134.167 C 398.967 134.167,398.667 134.242,398.667 134.333 " stroke="none" fill="#7c2c54" fill-rule="evenodd"></path><path id="path2" d="M13.917 65.610 C 13.733 65.648,13.416 65.715,13.210 65.759 C 12.509 65.909,12.310 66.500,12.218 68.702 C 12.118 71.110,12.242 70.884,11.009 70.902 C 9.608 70.923,9.592 70.952,9.532 73.713 C 9.471 76.481,9.615 76.182,8.340 76.200 C 7.179 76.216,6.799 76.458,6.850 77.145 C 6.973 78.772,6.852 79.288,6.323 79.394 C 5.671 79.524,4.859 80.332,4.729 80.979 C 4.674 81.254,4.520 81.520,4.387 81.572 C 4.254 81.623,4.159 81.796,4.175 81.957 C 4.192 82.118,4.196 82.679,4.186 83.203 L 4.167 84.155 3.300 84.270 C 2.258 84.408,1.682 84.903,1.633 85.701 C 1.614 86.003,1.583 86.475,1.564 86.750 C 1.545 87.025,1.522 87.756,1.514 88.375 L 1.500 89.500 0.750 89.500 L 0.000 89.500 0.000 90.333 L 0.000 91.167 0.833 91.167 C 1.292 91.167,1.667 91.223,1.667 91.292 C 1.667 91.360,1.292 91.391,0.833 91.359 C 0.087 91.307,0.000 91.337,0.000 91.641 C 0.000 91.928,0.126 91.992,0.792 92.044 L 1.583 92.107 0.792 92.137 C 0.121 92.162,0.000 92.218,0.000 92.500 C 0.000 92.868,1.384 93.012,1.557 92.662 C 1.604 92.569,1.623 92.587,1.599 92.704 C 1.574 92.831,1.243 92.937,0.779 92.967 L 0.000 93.018 0.000 93.841 L 0.000 94.663 32.735 94.666 L 65.470 94.668 65.536 93.709 C 65.625 92.406,65.877 91.743,66.208 91.944 C 66.277 91.986,66.333 91.748,66.333 91.417 C 66.333 91.053,66.400 90.855,66.502 90.918 C 66.594 90.975,66.859 90.797,67.090 90.523 C 67.402 90.151,67.646 90.027,68.046 90.036 C 68.342 90.043,69.033 89.963,69.583 89.858 C 70.925 89.604,92.064 89.602,93.833 89.857 C 94.521 89.956,95.306 90.047,95.578 90.060 C 95.924 90.076,96.137 90.209,96.286 90.500 C 96.404 90.729,96.575 90.898,96.666 90.875 C 96.758 90.852,96.836 91.040,96.839 91.292 C 96.842 91.544,96.952 91.938,97.083 92.167 C 97.218 92.401,97.324 93.038,97.327 93.625 L 97.333 94.668 189.292 94.625 L 281.250 94.583 281.304 93.335 C 281.369 91.837,281.256 91.967,282.494 91.967 C 283.676 91.967,284.038 91.717,283.986 90.936 C 283.868 89.160,283.952 88.886,284.737 88.506 C 285.437 88.167,286.287 86.996,286.078 86.658 C 286.037 86.592,286.134 86.548,286.293 86.560 C 286.540 86.580,286.590 86.408,286.627 85.417 C 286.684 83.901,286.717 83.833,287.404 83.833 C 288.962 83.833,289.287 83.128,289.323 79.667 L 289.334 78.583 290.328 78.583 C 291.841 78.583,291.906 78.470,291.969 75.706 C 292.030 73.032,291.898 73.300,293.160 73.300 C 294.699 73.300,294.656 73.422,294.617 69.205 L 294.583 65.583 195.958 65.541 L 97.333 65.499 97.327 66.541 C 97.324 67.128,97.218 67.765,97.083 68.000 C 96.952 68.229,96.842 68.623,96.839 68.875 C 96.836 69.127,96.758 69.315,96.666 69.292 C 96.575 69.269,96.404 69.438,96.286 69.667 C 96.137 69.958,95.924 70.090,95.578 70.107 C 95.306 70.120,94.521 70.211,93.833 70.310 C 92.064 70.564,70.925 70.563,69.583 70.308 C 69.033 70.204,68.342 70.124,68.046 70.130 C 67.646 70.139,67.402 70.015,67.090 69.644 C 66.859 69.369,66.594 69.192,66.502 69.249 C 66.400 69.312,66.333 69.113,66.333 68.750 C 66.333 68.418,66.277 68.181,66.208 68.223 C 65.877 68.423,65.625 67.761,65.536 66.457 L 65.470 65.498 39.860 65.519 C 25.775 65.531,14.100 65.572,13.917 65.610 M13.667 66.125 C 13.333 66.292,12.959 66.666,12.792 67.000 C 12.632 67.321,12.503 67.471,12.506 67.333 C 12.521 66.682,13.348 65.854,14.000 65.839 C 14.137 65.836,13.987 65.965,13.667 66.125 M3.000 84.792 C 2.666 84.959,2.292 85.333,2.125 85.667 C 1.965 85.987,1.836 86.138,1.839 86.000 C 1.854 85.348,2.682 84.521,3.333 84.506 C 3.471 84.503,3.321 84.632,3.000 84.792 M3.806 85.714 C 3.562 85.917,3.201 86.271,3.005 86.500 L 2.647 86.917 2.926 86.458 C 3.080 86.206,3.403 85.852,3.644 85.672 C 4.240 85.227,4.356 85.257,3.806 85.714 M285.182 87.145 C 284.685 87.844,284.000 88.274,284.000 87.888 C 284.000 87.498,284.823 86.667,285.209 86.667 C 285.510 86.667,285.509 86.686,285.182 87.145 M118.167 100.285 C 116.840 100.422,116.333 100.919,116.333 102.081 C 116.333 102.837,116.379 102.824,113.681 102.849 C 110.881 102.875,110.846 102.893,110.866 104.340 C 110.884 105.566,110.954 105.500,109.615 105.520 C 108.288 105.540,108.212 105.618,108.185 106.988 C 108.159 108.289,108.204 108.242,106.998 108.246 C 105.466 108.252,105.583 107.384,105.583 118.750 C 105.583 130.116,105.466 129.248,106.998 129.254 C 108.208 129.258,108.166 129.213,108.186 130.552 C 108.206 131.878,108.285 131.955,109.654 131.982 C 110.950 132.007,110.849 131.909,110.866 133.160 C 110.887 134.612,110.902 134.620,113.692 134.652 C 116.465 134.684,116.218 134.568,116.200 135.827 C 116.178 137.387,115.933 137.317,121.417 137.317 C 126.900 137.317,126.656 137.387,126.634 135.827 C 126.616 134.569,126.335 134.693,129.338 134.634 L 131.917 134.583 131.968 133.338 C 132.029 131.846,131.840 132.035,133.335 131.971 C 134.297 131.929,134.588 131.859,134.606 131.667 C 134.618 131.529,134.637 130.935,134.647 130.347 C 134.672 129.006,134.847 129.109,134.866 130.477 C 134.874 131.034,134.936 131.456,135.005 131.414 C 135.073 131.372,135.231 131.467,135.356 131.627 C 135.562 131.889,135.556 131.895,135.292 131.688 C 135.121 131.554,135.000 131.532,135.000 131.635 C 135.000 131.865,135.381 131.953,136.487 131.980 C 137.593 132.007,137.500 131.896,137.520 133.218 C 137.540 134.543,137.619 134.622,138.976 134.648 C 140.270 134.674,140.333 134.710,140.333 135.419 C 140.333 137.176,140.503 137.222,147.192 137.288 C 153.676 137.352,153.323 137.436,153.300 135.827 C 153.282 134.573,153.027 134.695,155.789 134.633 C 158.540 134.572,158.581 134.551,158.588 133.200 C 158.594 132.020,158.707 131.833,159.419 131.833 C 161.255 131.833,161.250 131.858,161.250 122.750 C 161.250 113.578,161.295 113.791,159.333 113.631 L 158.750 113.583 158.632 112.513 C 158.452 110.881,158.387 110.854,154.565 110.838 L 153.380 110.833 153.287 109.811 C 153.139 108.185,153.375 108.256,148.004 108.211 C 142.610 108.165,142.844 108.098,142.866 109.673 C 142.884 110.932,143.131 110.816,140.358 110.848 C 137.568 110.880,137.554 110.888,137.533 112.340 C 137.515 113.599,137.563 113.550,136.340 113.533 C 135.131 113.516,134.793 113.768,134.845 114.649 C 134.864 114.980,134.869 117.256,134.857 119.708 L 134.833 124.167 133.500 124.167 C 132.350 124.167,132.163 124.207,132.143 124.458 C 132.131 124.619,132.064 124.161,131.995 123.441 C 131.822 121.621,131.770 121.583,129.417 121.583 C 127.131 121.583,127.015 121.655,126.880 123.145 C 126.778 124.271,126.788 124.264,125.316 124.178 C 124.522 124.131,124.131 124.522,124.178 125.316 C 124.197 125.646,124.203 126.123,124.190 126.375 L 124.167 126.833 122.167 126.833 C 120.500 126.833,120.167 126.875,120.167 127.083 C 120.167 127.221,120.094 127.333,120.005 127.333 C 119.916 127.333,119.887 127.221,119.940 127.083 C 120.015 126.886,119.891 126.833,119.351 126.833 L 118.667 126.833 118.647 125.958 C 118.636 125.477,118.641 124.984,118.657 124.863 C 118.700 124.546,118.328 124.150,118.016 124.180 C 117.440 124.235,115.434 124.123,115.708 124.052 C 115.978 123.981,116.000 123.582,116.000 118.654 L 116.000 113.333 117.042 113.314 C 117.615 113.304,118.196 113.285,118.333 113.272 C 118.610 113.248,118.620 113.198,118.647 111.708 L 118.667 110.667 121.417 110.667 L 124.167 110.667 124.186 111.542 C 124.197 112.023,124.193 112.516,124.176 112.637 C 124.113 113.103,124.513 113.291,125.616 113.315 C 126.963 113.344,126.909 113.294,126.913 114.502 C 126.918 115.883,126.977 115.917,129.417 115.917 C 131.910 115.917,131.905 115.920,131.939 114.233 C 131.952 113.544,132.009 112.935,132.065 112.879 C 132.121 112.823,132.167 112.908,132.167 113.066 C 132.167 113.319,132.320 113.348,133.375 113.303 L 134.583 113.250 134.635 112.056 C 134.681 111.018,134.648 110.852,134.385 110.784 C 134.102 110.710,134.102 110.704,134.380 110.686 C 134.650 110.668,134.674 110.455,134.657 108.259 C 134.636 105.485,134.670 105.547,133.179 105.518 C 131.884 105.493,131.985 105.591,131.967 104.340 C 131.951 103.179,131.709 102.799,131.022 102.850 C 130.781 102.869,129.712 102.872,128.648 102.858 L 126.713 102.833 126.620 101.811 C 126.475 100.214,126.580 100.252,122.369 100.237 C 120.379 100.230,118.487 100.252,118.167 100.285 M162.051 108.335 C 161.815 108.430,161.651 108.678,161.588 109.033 C 161.373 110.257,161.574 136.807,161.800 137.033 C 162.114 137.347,170.194 137.344,170.937 137.030 C 171.890 136.628,171.897 136.574,171.958 128.750 C 172.021 120.636,171.967 121.167,172.737 121.167 C 173.898 121.167,174.481 120.605,174.517 119.450 C 174.622 116.057,174.805 119.707,174.824 125.583 C 174.860 136.517,174.867 136.596,175.889 137.027 C 176.638 137.344,184.717 137.349,185.033 137.033 C 185.203 136.863,185.261 135.165,185.301 129.122 C 185.328 124.890,185.383 121.395,185.421 121.356 C 185.460 121.318,185.943 121.292,186.493 121.300 C 187.703 121.317,188.040 121.065,187.989 120.184 C 187.928 119.155,187.992 118.642,188.167 118.750 C 188.258 118.807,188.333 119.108,188.333 119.419 C 188.333 120.582,188.918 121.167,190.081 121.167 C 190.871 121.167,190.824 120.678,190.838 129.142 C 190.849 135.833,190.884 136.860,191.108 137.084 C 191.451 137.427,199.639 137.358,200.364 137.007 C 201.251 136.577,201.250 136.587,201.250 125.417 C 201.250 113.293,201.309 113.667,199.404 113.667 C 198.719 113.667,198.689 113.604,198.629 112.083 L 198.583 110.917 197.417 110.870 C 195.856 110.808,195.924 110.861,195.920 109.704 C 195.915 108.188,196.112 108.250,191.283 108.250 C 186.015 108.250,185.781 108.329,185.631 110.167 L 185.583 110.750 184.083 110.750 L 182.583 110.750 182.536 110.167 C 182.386 108.329,182.152 108.250,176.884 108.250 C 172.066 108.250,172.252 108.193,172.246 109.675 C 172.243 110.743,171.948 111.128,171.869 110.167 C 171.796 109.277,171.523 108.732,171.030 108.493 C 170.499 108.236,162.641 108.097,162.051 108.335 M202.051 108.343 C 201.487 108.558,201.490 108.421,201.538 127.417 L 201.583 145.250 206.533 145.250 C 210.371 145.250,211.532 145.201,211.700 145.034 C 211.861 144.872,211.930 143.870,211.971 141.119 C 212.000 139.084,212.045 137.400,212.070 137.375 C 212.095 137.350,214.336 137.312,217.052 137.290 C 222.745 137.244,222.472 137.322,222.620 135.689 L 222.713 134.667 223.648 134.649 C 225.461 134.615,225.282 134.797,225.316 132.958 L 225.333 132.000 226.750 132.000 L 228.167 132.000 228.186 133.042 C 228.196 133.615,228.215 134.196,228.228 134.333 C 228.245 134.522,228.514 134.595,229.333 134.629 C 231.009 134.700,230.909 134.627,230.913 135.785 C 230.918 137.319,230.660 137.244,236.082 137.290 C 241.398 137.334,241.390 137.336,241.322 136.184 C 241.238 134.746,241.272 134.667,241.988 134.667 C 242.471 134.667,242.662 134.590,242.718 134.375 C 242.791 134.097,242.796 134.097,242.814 134.375 C 242.829 134.601,242.984 134.667,243.500 134.667 C 244.229 134.667,244.263 134.741,244.178 136.184 C 244.114 137.275,244.240 137.312,248.083 137.312 C 250.903 137.312,251.542 137.268,251.749 137.061 C 251.969 136.841,251.995 135.389,251.958 125.494 C 251.911 112.587,252.060 113.701,250.355 113.546 L 249.333 113.454 249.308 112.852 C 249.294 112.521,249.298 112.053,249.316 111.812 C 249.379 110.983,249.071 110.878,246.475 110.848 C 243.702 110.816,243.949 110.932,243.967 109.673 C 243.989 108.096,244.234 108.164,238.748 108.210 C 233.347 108.256,233.585 108.189,233.580 109.665 C 233.575 110.916,233.791 110.819,230.958 110.842 C 229.284 110.856,228.464 110.926,228.350 111.063 C 228.248 111.186,228.182 113.214,228.179 116.322 C 228.177 119.104,228.135 121.420,228.087 121.468 C 228.039 121.516,227.991 120.287,227.981 118.736 C 227.944 113.253,228.040 113.585,226.502 113.580 C 225.295 113.575,225.318 113.599,225.300 112.340 C 225.280 110.888,225.265 110.880,222.475 110.848 C 219.702 110.816,219.949 110.932,219.967 109.673 C 219.988 108.156,220.073 108.188,216.083 108.188 C 212.240 108.188,212.114 108.225,212.178 109.316 C 212.197 109.646,212.203 110.123,212.190 110.375 L 212.167 110.833 210.750 110.833 L 209.333 110.833 209.310 110.375 C 209.297 110.123,209.303 109.646,209.322 109.316 C 209.386 108.232,209.240 108.188,205.624 108.197 C 203.860 108.201,202.252 108.267,202.051 108.343 M253.054 108.286 C 252.222 108.440,252.250 107.941,252.250 122.770 C 252.250 135.877,252.267 136.671,252.548 136.952 C 253.003 137.408,261.830 137.408,262.286 136.953 C 262.561 136.678,262.587 136.115,262.626 129.536 C 262.649 125.620,262.687 122.155,262.709 121.836 L 262.750 121.255 263.783 121.253 C 265.084 121.249,265.249 121.089,265.254 119.825 C 265.257 118.757,265.552 118.372,265.631 119.333 C 265.738 120.643,266.248 121.167,267.415 121.167 C 268.204 121.167,268.158 120.678,268.172 129.142 C 268.183 135.833,268.217 136.860,268.441 137.084 C 268.784 137.427,276.973 137.358,277.697 137.007 C 278.622 136.558,278.642 136.332,278.672 125.833 C 278.684 121.846,278.719 118.658,278.751 118.750 C 278.783 118.842,278.843 120.342,278.884 122.083 C 278.977 126.047,279.151 126.468,280.716 126.517 C 281.344 126.536,282.251 126.791,281.786 126.817 C 281.513 126.832,281.490 127.033,281.515 129.176 C 281.545 131.735,281.651 132.045,282.478 131.983 C 282.719 131.965,283.198 131.961,283.542 131.975 L 284.167 132.000 284.167 133.394 L 284.167 134.787 283.145 134.880 C 281.870 134.995,281.662 135.202,281.547 136.472 L 281.455 137.487 280.186 137.535 L 278.917 137.583 278.917 141.417 L 278.917 145.250 284.667 145.250 C 292.153 145.250,291.759 145.424,291.940 142.030 C 292.062 139.731,291.950 139.925,293.169 139.920 C 294.617 139.915,294.575 140.032,294.637 135.785 C 294.667 133.751,294.715 132.063,294.744 132.034 C 294.772 132.005,295.260 131.975,295.827 131.967 C 297.348 131.946,297.298 132.083,297.324 127.803 C 297.336 125.766,297.367 124.077,297.394 124.051 C 297.420 124.024,297.923 123.993,298.512 123.982 C 300.003 123.953,299.969 124.015,299.990 121.241 C 300.007 119.044,299.983 118.832,299.713 118.817 C 299.249 118.791,300.158 118.536,300.784 118.517 C 302.458 118.465,302.583 118.078,302.583 112.965 C 302.583 107.675,303.214 108.250,297.417 108.250 C 291.673 108.250,292.264 107.801,292.205 112.214 C 292.144 116.709,292.278 116.244,291.050 116.247 C 289.543 116.251,289.591 116.124,289.535 120.300 C 289.477 124.702,289.371 125.269,289.328 121.417 C 289.265 115.871,289.377 116.252,287.796 116.247 C 287.235 116.245,286.757 116.170,286.733 116.080 C 286.710 115.990,286.658 114.492,286.616 112.750 C 286.505 108.018,286.853 108.298,280.974 108.217 C 275.741 108.146,276.211 107.870,276.182 111.024 C 276.160 113.367,276.017 114.479,275.982 112.569 C 275.950 110.774,276.058 110.922,274.750 110.870 C 273.190 110.808,273.257 110.861,273.253 109.704 C 273.248 108.179,273.498 108.250,268.164 108.250 C 262.687 108.250,263.020 108.134,262.850 110.108 L 262.738 111.417 262.643 110.114 C 262.501 108.149,262.774 108.253,257.702 108.235 C 255.345 108.226,253.253 108.250,253.054 108.286 M147.750 109.439 C 146.556 109.563,145.204 109.573,145.275 109.458 C 145.318 109.390,146.005 109.345,146.802 109.360 C 147.598 109.375,148.025 109.410,147.750 109.439 M217.558 109.458 C 217.600 109.527,216.937 109.583,216.083 109.583 C 215.230 109.583,214.567 109.527,214.609 109.458 C 214.652 109.390,215.315 109.333,216.083 109.333 C 216.852 109.333,217.515 109.390,217.558 109.458 M241.558 109.458 C 241.601 109.527,241.174 109.562,240.610 109.537 C 238.772 109.454,238.554 109.387,240.032 109.360 C 240.829 109.345,241.515 109.390,241.558 109.458 M281.083 109.439 C 279.890 109.563,278.537 109.573,278.609 109.458 C 278.651 109.390,279.338 109.345,280.135 109.360 C 280.932 109.375,281.358 109.410,281.083 109.439 M252.792 127.446 C 252.766 130.088,252.745 127.975,252.745 122.750 C 252.745 117.525,252.766 115.363,252.792 117.946 C 252.817 120.530,252.817 124.805,252.792 127.446 M254.125 127.446 C 254.099 130.088,254.078 127.975,254.078 122.750 C 254.078 117.525,254.099 115.363,254.125 117.946 C 254.151 120.530,254.151 124.805,254.125 127.446 M216.846 118.667 L 217.500 118.667 217.500 122.667 C 217.500 126.358,217.523 126.668,217.792 126.686 C 218.069 126.704,218.069 126.709,217.792 126.782 C 217.631 126.823,217.491 126.984,217.481 127.137 C 217.463 127.386,217.453 127.384,217.385 127.125 C 217.316 126.862,217.019 126.831,214.363 126.814 C 212.742 126.803,211.548 126.760,211.708 126.718 C 211.976 126.649,212.000 126.317,212.000 122.750 C 212.000 119.183,211.976 118.851,211.708 118.782 C 211.548 118.740,212.448 118.697,213.708 118.686 C 215.764 118.669,216.002 118.637,216.019 118.375 C 216.038 118.097,216.042 118.097,216.115 118.375 C 216.171 118.590,216.362 118.667,216.846 118.667 M277.458 128.708 C 277.431 130.656,277.410 129.063,277.410 125.167 C 277.410 121.271,277.431 119.677,277.458 121.625 C 277.485 123.573,277.485 126.760,277.458 128.708 M148.298 119.333 C 148.324 119.654,148.424 120.116,148.520 120.361 C 148.712 120.846,149.264 121.129,150.167 121.202 L 150.750 121.250 150.797 123.292 C 150.838 125.084,150.879 125.336,151.130 125.353 C 151.396 125.371,151.395 125.378,151.125 125.448 C 150.910 125.504,150.833 125.696,150.833 126.179 L 150.833 126.833 148.083 126.833 L 145.333 126.833 145.333 122.846 C 145.333 119.189,145.309 118.851,145.042 118.778 C 144.881 118.735,145.537 118.710,146.500 118.724 L 148.250 118.750 148.298 119.333 M200.125 128.886 C 200.098 130.736,200.076 129.175,200.076 125.417 C 200.076 121.658,200.098 120.145,200.125 122.053 C 200.152 123.961,200.152 127.036,200.125 128.886 M239.551 118.791 C 238.434 118.820,236.559 118.820,235.385 118.791 C 234.211 118.763,235.125 118.739,237.417 118.739 C 239.708 118.739,240.669 118.762,239.551 118.791 M144.122 123.547 C 144.087 123.934,144.059 123.575,144.059 122.750 C 144.060 121.925,144.088 121.609,144.123 122.047 C 144.157 122.485,144.157 123.160,144.122 123.547 M151.456 123.625 C 151.422 124.060,151.393 123.704,151.393 122.833 C 151.393 121.962,151.422 121.606,151.456 122.042 C 151.490 122.477,151.490 123.190,151.456 123.625 M152.788 123.547 C 152.754 123.934,152.725 123.575,152.726 122.750 C 152.726 121.925,152.755 121.609,152.789 122.047 C 152.824 122.485,152.823 123.160,152.788 123.547 M176.125 129.552 C 176.097 131.036,176.075 129.775,176.075 126.750 C 176.075 123.725,176.097 122.511,176.125 124.052 C 176.152 125.593,176.152 128.068,176.125 129.552 M210.788 123.547 C 210.754 123.934,210.725 123.575,210.726 122.750 C 210.726 121.925,210.755 121.609,210.789 122.047 C 210.824 122.485,210.823 123.160,210.788 123.547 M250.124 125.550 C 250.093 126.302,250.068 125.642,250.068 124.083 C 250.068 122.525,250.094 121.910,250.124 122.717 C 250.155 123.523,250.155 124.798,250.124 125.550 M251.457 125.625 C 251.427 126.427,251.402 125.771,251.402 124.167 C 251.402 122.563,251.427 121.906,251.457 122.708 C 251.488 123.510,251.488 124.823,251.457 125.625 M262.125 129.781 C 262.097 131.139,262.074 130.075,262.074 127.417 C 262.073 124.758,262.096 123.647,262.125 124.948 C 262.153 126.249,262.153 128.424,262.125 129.781 M170.791 130.042 C 170.763 131.256,170.739 130.262,170.739 127.833 C 170.739 125.404,170.763 124.410,170.791 125.625 C 170.820 126.840,170.820 128.827,170.791 130.042 M260.791 130.125 C 260.763 131.294,260.739 130.337,260.739 128.000 C 260.739 125.662,260.763 124.706,260.791 125.875 C 260.820 127.044,260.820 128.956,260.791 130.125 M240.217 126.791 C 239.465 126.821,238.190 126.821,237.383 126.791 C 236.577 126.760,237.192 126.735,238.750 126.735 C 240.308 126.735,240.968 126.760,240.217 126.791 M148.294 127.448 C 148.134 127.490,147.834 127.491,147.627 127.451 C 147.420 127.411,147.550 127.377,147.917 127.375 C 148.283 127.374,148.453 127.406,148.294 127.448 M398.958 134.618 C 399.165 134.657,399.502 134.657,399.708 134.618 C 399.915 134.578,399.746 134.545,399.333 134.545 C 398.921 134.545,398.752 134.578,398.958 134.618 M124.224 136.042 C 124.182 136.110,122.918 136.167,121.417 136.167 C 119.915 136.167,118.652 136.110,118.609 136.042 C 118.567 135.973,119.830 135.917,121.417 135.917 C 123.003 135.917,124.267 135.973,124.224 136.042 M194.849 136.131 C 194.078 136.158,193.388 136.122,193.315 136.049 C 193.242 135.976,193.872 135.954,194.716 135.999 L 196.250 136.081 194.849 136.131 M249.558 136.042 C 249.515 136.110,248.852 136.167,248.083 136.167 C 247.315 136.167,246.652 136.110,246.609 136.042 C 246.567 135.973,247.230 135.917,248.083 135.917 C 248.937 135.917,249.600 135.973,249.558 136.042 M272.182 136.131 C 271.412 136.158,270.721 136.122,270.648 136.049 C 270.575 135.976,271.205 135.954,272.049 135.999 L 273.583 136.081 272.182 136.131 M210.790 139.375 C 210.756 139.856,210.728 139.462,210.728 138.500 C 210.728 137.537,210.756 137.144,210.790 137.625 C 210.823 138.106,210.823 138.894,210.790 139.375 " stroke="none" fill="#6c145c" fill-rule="evenodd"></path><path id="path3" d="M65.542 66.750 C 65.650 67.807,65.918 68.399,66.208 68.223 C 66.277 68.181,66.333 68.418,66.333 68.750 C 66.333 69.113,66.400 69.312,66.502 69.249 C 66.594 69.192,66.859 69.369,67.090 69.644 C 67.402 70.015,67.646 70.139,68.046 70.130 C 68.342 70.124,69.033 70.204,69.583 70.308 C 70.925 70.563,92.064 70.564,93.833 70.310 C 94.521 70.211,95.306 70.120,95.578 70.107 C 95.924 70.090,96.137 69.958,96.286 69.667 C 96.404 69.438,96.575 69.269,96.666 69.292 C 96.758 69.315,96.836 69.127,96.839 68.875 C 96.842 68.623,96.952 68.229,97.083 68.000 C 97.214 67.771,97.317 67.321,97.311 67.000 C 97.301 66.488,97.286 66.468,97.185 66.831 C 97.046 67.328,96.108 68.000,95.553 68.000 C 95.335 68.000,95.113 68.112,95.060 68.250 C 95.008 68.387,94.865 68.500,94.744 68.500 C 94.623 68.500,94.406 68.618,94.262 68.762 C 94.118 68.906,94.000 68.989,94.000 68.946 C 94.000 68.903,93.543 69.010,92.985 69.184 C 91.629 69.606,71.249 69.678,70.258 69.264 C 69.948 69.134,69.650 69.072,69.597 69.125 C 69.544 69.179,69.500 69.130,69.500 69.018 C 69.500 68.906,69.425 68.860,69.333 68.917 C 69.242 68.973,69.167 68.940,69.167 68.843 C 69.167 68.746,69.057 68.667,68.923 68.667 C 68.788 68.667,68.604 68.527,68.512 68.356 C 68.407 68.159,68.090 68.011,67.646 67.952 C 66.802 67.839,66.227 67.437,65.796 66.661 L 65.475 66.083 65.542 66.750 M3.644 85.672 C 3.403 85.852,3.080 86.206,2.926 86.458 L 2.647 86.917 3.005 86.500 C 3.201 86.271,3.562 85.917,3.806 85.714 C 4.356 85.257,4.240 85.227,3.644 85.672 M69.417 89.874 C 68.958 89.967,68.342 90.038,68.046 90.033 C 67.648 90.027,67.401 90.153,67.090 90.523 C 66.859 90.797,66.594 90.975,66.502 90.918 C 66.400 90.855,66.333 91.053,66.333 91.417 C 66.333 91.748,66.277 91.986,66.208 91.944 C 65.918 91.768,65.650 92.360,65.542 93.417 L 65.475 94.083 65.796 93.505 C 66.227 92.729,66.802 92.328,67.646 92.215 C 68.090 92.155,68.407 92.007,68.512 91.811 C 68.604 91.640,68.788 91.500,68.923 91.500 C 69.057 91.500,69.167 91.421,69.167 91.323 C 69.167 91.226,69.242 91.193,69.333 91.250 C 69.425 91.307,69.500 91.261,69.500 91.149 C 69.500 91.036,69.544 90.988,69.597 91.041 C 69.650 91.095,69.948 91.032,70.258 90.902 C 71.249 90.489,91.629 90.560,92.985 90.983 C 93.543 91.156,94.000 91.263,94.000 91.221 C 94.000 91.178,94.118 91.261,94.262 91.405 C 94.406 91.549,94.623 91.667,94.744 91.667 C 94.865 91.667,95.008 91.779,95.060 91.917 C 95.113 92.054,95.335 92.167,95.553 92.167 C 96.108 92.167,97.046 92.839,97.185 93.335 C 97.286 93.699,97.301 93.678,97.311 93.167 C 97.317 92.846,97.214 92.396,97.083 92.167 C 96.952 91.938,96.842 91.544,96.839 91.292 C 96.836 91.040,96.758 90.852,96.666 90.875 C 96.575 90.898,96.404 90.729,96.286 90.500 C 96.137 90.209,95.924 90.076,95.578 90.060 C 95.306 90.047,94.521 89.956,93.833 89.857 C 92.200 89.622,70.591 89.637,69.417 89.874 M0.167 91.260 C 0.798 91.397,1.667 91.420,1.667 91.300 C 1.667 91.227,1.273 91.175,0.792 91.186 C 0.310 91.197,0.029 91.230,0.167 91.260 M0.377 92.120 C 0.631 92.158,1.006 92.157,1.211 92.117 C 1.416 92.078,1.208 92.046,0.750 92.048 C 0.292 92.049,0.124 92.081,0.377 92.120 M1.500 92.639 C 1.500 92.756,1.184 92.845,0.708 92.862 L -0.083 92.892 0.648 92.956 C 1.342 93.018,1.860 92.804,1.614 92.558 C 1.551 92.496,1.500 92.532,1.500 92.639 M145.275 109.458 C 145.233 109.527,145.659 109.562,146.224 109.537 C 148.062 109.454,148.279 109.387,146.802 109.360 C 146.005 109.345,145.318 109.390,145.275 109.458 M214.609 109.458 C 214.567 109.527,215.230 109.583,216.083 109.583 C 216.937 109.583,217.600 109.527,217.558 109.458 C 217.515 109.390,216.852 109.333,216.083 109.333 C 215.315 109.333,214.652 109.390,214.609 109.458 M239.083 109.439 C 240.277 109.563,241.630 109.573,241.558 109.458 C 241.515 109.390,240.829 109.345,240.032 109.360 C 239.235 109.375,238.808 109.410,239.083 109.439 M278.609 109.458 C 278.566 109.527,278.993 109.562,279.557 109.537 C 281.395 109.454,281.613 109.387,280.135 109.360 C 279.338 109.345,278.651 109.390,278.609 109.458 M252.745 122.750 C 252.745 127.975,252.766 130.088,252.792 127.446 C 252.817 124.805,252.817 120.530,252.792 117.946 C 252.766 115.363,252.745 117.525,252.745 122.750 M254.078 122.750 C 254.078 127.975,254.099 130.088,254.125 127.446 C 254.151 124.805,254.151 120.530,254.125 117.946 C 254.099 115.363,254.078 117.525,254.078 122.750 M277.410 125.167 C 277.410 129.063,277.431 130.656,277.458 128.708 C 277.485 126.760,277.485 123.573,277.458 121.625 C 277.431 119.677,277.410 121.271,277.410 125.167 M200.076 125.417 C 200.076 129.175,200.098 130.736,200.125 128.886 C 200.152 127.036,200.152 123.961,200.125 122.053 C 200.098 120.145,200.076 121.658,200.076 125.417 M144.059 122.750 C 144.059 123.575,144.087 123.934,144.122 123.547 C 144.157 123.160,144.157 122.485,144.123 122.047 C 144.088 121.609,144.060 121.925,144.059 122.750 M151.393 122.833 C 151.393 123.704,151.422 124.060,151.456 123.625 C 151.490 123.190,151.490 122.477,151.456 122.042 C 151.422 121.606,151.393 121.962,151.393 122.833 M152.726 122.750 C 152.725 123.575,152.754 123.934,152.788 123.547 C 152.823 123.160,152.824 122.485,152.789 122.047 C 152.755 121.609,152.726 121.925,152.726 122.750 M176.075 126.750 C 176.075 129.775,176.097 131.036,176.125 129.552 C 176.152 128.068,176.152 125.593,176.125 124.052 C 176.097 122.511,176.075 123.725,176.075 126.750 M210.726 122.750 C 210.725 123.575,210.754 123.934,210.788 123.547 C 210.823 123.160,210.824 122.485,210.789 122.047 C 210.755 121.609,210.726 121.925,210.726 122.750 M250.068 124.083 C 250.068 125.642,250.093 126.302,250.124 125.550 C 250.155 124.798,250.155 123.523,250.124 122.717 C 250.094 121.910,250.068 122.525,250.068 124.083 M251.402 124.167 C 251.402 125.771,251.427 126.427,251.457 125.625 C 251.488 124.823,251.488 123.510,251.457 122.708 C 251.427 121.906,251.402 122.563,251.402 124.167 M262.074 127.417 C 262.074 130.075,262.097 131.139,262.125 129.781 C 262.153 128.424,262.153 126.249,262.125 124.948 C 262.096 123.647,262.073 124.758,262.074 127.417 M170.739 127.833 C 170.739 130.262,170.763 131.256,170.791 130.042 C 170.820 128.827,170.820 126.840,170.791 125.625 C 170.763 124.410,170.739 125.404,170.739 127.833 M260.739 128.000 C 260.739 130.337,260.763 131.294,260.791 130.125 C 260.820 128.956,260.820 127.044,260.791 125.875 C 260.763 124.706,260.739 125.662,260.739 128.000 M217.391 126.924 C 217.337 127.065,217.339 127.228,217.396 127.285 C 217.453 127.342,217.500 127.269,217.500 127.123 C 217.500 126.977,217.631 126.823,217.792 126.782 C 218.065 126.710,218.065 126.704,217.786 126.686 C 217.623 126.675,217.445 126.782,217.391 126.924 M147.627 127.451 C 147.834 127.491,148.134 127.490,148.294 127.448 C 148.453 127.406,148.283 127.374,147.917 127.375 C 147.550 127.377,147.420 127.411,147.627 127.451 M118.609 136.042 C 118.652 136.110,119.915 136.167,121.417 136.167 C 122.918 136.167,124.182 136.110,124.224 136.042 C 124.267 135.973,123.003 135.917,121.417 135.917 C 119.830 135.917,118.567 135.973,118.609 136.042 M193.315 136.049 C 193.388 136.122,194.078 136.158,194.849 136.131 L 196.250 136.081 194.716 135.999 C 193.872 135.954,193.242 135.976,193.315 136.049 M246.609 136.042 C 246.652 136.110,247.315 136.167,248.083 136.167 C 248.852 136.167,249.515 136.110,249.558 136.042 C 249.600 135.973,248.937 135.917,248.083 135.917 C 247.230 135.917,246.567 135.973,246.609 136.042 M270.648 136.049 C 270.721 136.122,271.412 136.158,272.182 136.131 L 273.583 136.081 272.049 135.999 C 271.205 135.954,270.575 135.976,270.648 136.049 M210.728 138.500 C 210.728 139.462,210.756 139.856,210.790 139.375 C 210.823 138.894,210.823 138.106,210.790 137.625 C 210.756 137.144,210.728 137.537,210.728 138.500 " stroke="none" fill="#6c1c5c" fill-rule="evenodd"></path><path id="path4" d="M73.214 0.750 C 73.216 1.208,73.248 1.376,73.286 1.123 C 73.325 0.869,73.324 0.494,73.284 0.289 C 73.244 0.084,73.213 0.292,73.214 0.750 M94.519 9.792 C 94.738 9.952,95.197 10.226,95.539 10.400 C 95.961 10.614,96.275 10.952,96.516 11.450 C 96.932 12.309,97.060 12.313,96.824 11.460 C 96.645 10.812,95.827 10.000,95.352 10.000 C 95.194 10.000,94.918 9.890,94.740 9.755 C 94.562 9.621,94.350 9.508,94.269 9.505 C 94.188 9.502,94.301 9.631,94.519 9.792 M66.417 65.732 C 66.783 65.858,67.646 66.138,68.333 66.353 L 69.583 66.745 80.750 66.801 C 92.774 66.861,93.998 66.800,96.048 66.042 C 97.418 65.535,97.401 65.436,95.985 65.685 C 94.519 65.943,71.090 66.086,69.256 65.848 C 68.519 65.753,67.429 65.636,66.833 65.589 L 65.750 65.502 66.417 65.732 M69.417 93.575 C 67.586 94.043,65.917 94.527,65.836 94.615 C 65.743 94.714,67.118 94.595,69.256 94.318 C 71.090 94.081,94.519 94.224,95.985 94.482 C 96.572 94.585,97.082 94.640,97.118 94.604 C 97.259 94.464,94.681 93.670,93.551 93.507 C 91.712 93.241,70.490 93.300,69.417 93.575 M394.393 111.157 C 395.044 111.372,395.474 111.792,395.669 112.403 L 395.832 112.917 395.745 112.334 C 395.635 111.595,395.239 111.198,394.499 111.087 C 393.951 111.005,393.945 111.009,394.393 111.157 M357.244 113.825 C 356.754 114.024,356.513 114.371,356.418 115.016 L 356.334 115.583 356.498 115.070 C 356.695 114.452,357.131 114.031,357.774 113.838 C 358.099 113.741,358.144 113.694,357.917 113.692 C 357.733 113.689,357.431 113.750,357.244 113.825 M391.005 123.113 C 390.999 123.367,391.466 123.835,391.720 123.828 C 391.828 123.825,391.788 123.748,391.630 123.656 C 391.473 123.564,391.269 123.361,391.177 123.203 C 391.085 123.046,391.008 123.005,391.005 123.113 M391.911 124.492 C 391.421 124.691,391.180 125.037,391.085 125.683 L 391.001 126.250 391.165 125.736 C 391.362 125.118,391.798 124.697,392.440 124.505 C 392.765 124.407,392.811 124.361,392.583 124.358 C 392.400 124.356,392.097 124.416,391.911 124.492 M354.578 135.159 C 354.087 135.357,353.847 135.704,353.752 136.349 L 353.668 136.917 353.831 136.403 C 354.028 135.785,354.464 135.364,355.107 135.171 C 355.432 135.074,355.477 135.027,355.250 135.025 C 355.067 135.023,354.764 135.083,354.578 135.159 M383.087 135.833 C 383.198 136.573,383.595 136.969,384.334 137.079 L 384.917 137.166 384.403 137.002 C 383.792 136.807,383.372 136.377,383.157 135.726 C 383.009 135.278,383.005 135.284,383.087 135.833 M311.005 136.446 C 310.999 136.700,311.466 137.168,311.720 137.162 C 311.828 137.159,311.788 137.081,311.630 136.990 C 311.473 136.898,311.269 136.694,311.177 136.536 C 311.085 136.379,311.008 136.338,311.005 136.446 M334.048 136.768 C 333.845 136.987,333.746 137.167,333.827 137.167 C 334.023 137.167,334.500 136.686,334.500 136.488 C 334.500 136.286,334.483 136.297,334.048 136.768 M337.672 136.446 C 337.665 136.700,338.133 137.168,338.387 137.162 C 338.495 137.159,338.454 137.081,338.297 136.990 C 338.139 136.898,337.936 136.694,337.844 136.536 C 337.752 136.379,337.675 136.338,337.672 136.446 M350.048 136.768 C 349.845 136.987,349.746 137.167,349.827 137.167 C 350.023 137.167,350.500 136.686,350.500 136.488 C 350.500 136.286,350.483 136.297,350.048 136.768 M353.754 138.499 C 353.865 139.239,354.261 139.635,355.001 139.745 L 355.583 139.832 355.070 139.669 C 354.458 139.474,354.038 139.044,353.824 138.393 C 353.676 137.945,353.671 137.951,353.754 138.499 M359.005 144.446 C 358.999 144.700,359.466 145.168,359.720 145.162 C 359.828 145.159,359.788 145.081,359.630 144.990 C 359.473 144.898,359.269 144.694,359.177 144.536 C 359.085 144.379,359.008 144.338,359.005 144.446 M66.977 148.468 C 67.168 148.736,67.519 149.083,67.756 149.238 L 68.187 149.521 68.135 148.802 L 68.083 148.083 67.356 148.031 L 66.629 147.979 66.977 148.468 M84.345 157.625 C 84.338 157.740,84.483 157.983,84.667 158.167 C 84.850 158.350,85.094 158.495,85.208 158.489 C 85.323 158.483,85.256 158.400,85.059 158.304 C 84.863 158.209,84.624 157.971,84.529 157.774 C 84.434 157.577,84.351 157.510,84.345 157.625 " stroke="none" fill="#f88444" fill-rule="evenodd"></path></g></svg>