<svg xmlns="http://www.w3.org/2000/svg" xmlns:xlink="http://www.w3.org/1999/xlink" viewBox="0 0 37.85 25.76">
  <defs>
    <clipPath id="clip-path">
      <rect y="0.06" width="37.85" height="25.65" fill="none"/>
    </clipPath>
  </defs>
  <title>Asset 2</title>
  <g id="Layer_2" data-name="Layer 2">
    <g id="Layer_1-2" data-name="Layer 1">
      <g clip-path="url(#clip-path)">
        <path d="M6.74,24.86H31.11a5.66,5.66,0,0,0,5.83-5.47V3.54A2.74,2.74,0,0,0,34.13.9H3.72A2.74,2.74,0,0,0,.9,3.54V19.4A5.66,5.66,0,0,0,6.74,24.86Z" fill="none" stroke="#0476e4" stroke-miterlimit="10" stroke-width="1.8"/>
        <ellipse cx="14.61" cy="11.61" rx="4.85" ry="4.54" fill="none" stroke="#0476e4" stroke-miterlimit="10" stroke-width="1.8"/>
        <path d="M6.53,24.09a8,8,0,0,1,8.23-7.71A8,8,0,0,1,23,24.09" fill="none" stroke="#0476e4" stroke-miterlimit="10" stroke-width="1.8"/>
        <line x1="24.15" y1="9.14" x2="32.92" y2="9.14" fill="none" stroke="#0476e4" stroke-miterlimit="10" stroke-width="1.8"/>
        <line x1="27.7" y1="13.35" x2="32.92" y2="13.35" fill="none" stroke="#0476e4" stroke-miterlimit="10" stroke-width="1.8"/>
      </g>
    </g>
  </g>
</svg>
