<svg id="Layer_1" data-name="Layer 1" xmlns="http://www.w3.org/2000/svg" xmlns:xlink="http://www.w3.org/1999/xlink" viewBox="0 0 143.13 146.58">
  <defs>
    <linearGradient id="linear-gradient" x1="125.61" y1="35.15" x2="18.95" y2="121.81" gradientUnits="userSpaceOnUse">
      <stop offset="0" stop-color="#fdd85c"/>
      <stop offset="0.1" stop-color="#fdd960"/>
      <stop offset="0.18" stop-color="#fddc6a"/>
      <stop offset="0.26" stop-color="#fde07c"/>
      <stop offset="0.34" stop-color="#fee696"/>
      <stop offset="0.42" stop-color="#feeeb7"/>
      <stop offset="0.49" stop-color="#fff8df"/>
      <stop offset="0.53" stop-color="#fffdf2"/>
      <stop offset="0.67" stop-color="#fee8b1"/>
      <stop offset="0.88" stop-color="#fdcc57"/>
      <stop offset="1" stop-color="#fdb570"/>
    </linearGradient>
    <linearGradient id="linear-gradient-2" x1="22.33" y1="22.33" x2="117.69" y2="117.69" gradientUnits="userSpaceOnUse">
      <stop offset="0" stop-color="#3bb8df"/>
      <stop offset="1" stop-color="#2f61e9"/>
    </linearGradient>
    <linearGradient id="linear-gradient-3" x1="28.85" y1="28.85" x2="109.82" y2="109.82" gradientUnits="userSpaceOnUse">
      <stop offset="0" stop-color="#2f61e9"/>
      <stop offset="1" stop-color="#3bb8df"/>
    </linearGradient>
  </defs>
  <title>Dedicated Support</title>
  <circle cx="73.79" cy="77.25" r="69.33" fill="url(#linear-gradient)"/>
  <circle cx="69.33" cy="69.33" r="69.33" fill="url(#linear-gradient-2)"/>
  <circle cx="69.33" cy="69.33" r="55.75" fill="none" stroke-miterlimit="10" stroke-width="3" stroke="url(#linear-gradient-3)"/>
  <g opacity="0.24">
    <g>
      <path d="M62.2,73.1v2.18H53.44V73.55l4.47-4.22a4.56,4.56,0,0,0,1-1.17,2.06,2.06,0,0,0,.25-1,1.27,1.27,0,0,0-.47-1.06,2.2,2.2,0,0,0-1.38-.38,3.25,3.25,0,0,0-1.38.29,2.67,2.67,0,0,0-1,.87l-2-1.26a4.68,4.68,0,0,1,1.87-1.58,6.29,6.29,0,0,1,2.73-.57,5.63,5.63,0,0,1,2.26.42,3.5,3.5,0,0,1,1.51,1.2,3.05,3.05,0,0,1,.54,1.81,4.1,4.1,0,0,1-.4,1.77,6.87,6.87,0,0,1-1.54,1.88L57.22,73.1Z" fill="#05143b"/>
      <path d="M73.75,72.87l-1.89,0v2.43H69.24V72.85H63v-1.8l5.46-7.35h2.81l-5.06,7h3.11V68.5h2.53v2.17l1.89,0Z" fill="#05143b"/>
    </g>
    <circle cx="44.05" cy="57.59" r="1.48" fill="#05143b"/>
    <path d="M100,81.57H95.71a1.66,1.66,0,0,1-1.33-.51,1.81,1.81,0,0,1-.49-1.33c0-.45,0-.91,0-1.36V63.16a1.81,1.81,0,0,1,1.8-1.81H103a4,4,0,0,1,4.12,4.09q0,6,0,12a4,4,0,0,1-4.06,4.09C102.07,81.56,101.06,81.57,100,81.57Zm-3.29-2.86h1.56c1.58,0,3.15,0,4.73,0a1.15,1.15,0,0,0,1.26-1.25q0-6,0-12A1.16,1.16,0,0,0,103,64.21H96.75v14.5Z" fill="#05143b"/>
    <path d="M40.43,81.57c-1,0-2,0-3,0a4,4,0,0,1-4.07-4.09q0-6,0-12a4,4,0,0,1,4.13-4.09h7.32a1.81,1.81,0,0,1,1.81,1.81v15.2c0,.45,0,.91,0,1.36a1.72,1.72,0,0,1-1.8,1.84H40.43Zm0-17.37h-3a1.16,1.16,0,0,0-1.28,1.26q0,6,0,12a1.15,1.15,0,0,0,1.26,1.25c1.57,0,3.15,0,4.72,0h1.56V64.21h-3.3Z" fill="#05143b"/>
    <path d="M39.49,81.25h2.39a22.81,22.81,0,0,0,1.18,3.26,5.83,5.83,0,0,0,5.08,3.22c3.83.13,7.66.06,11.49.08h1v2.57a1.86,1.86,0,0,1-.34.07c-4.09,0-8.18.07-12.27,0a9.18,9.18,0,0,1-8.48-8.35C39.48,81.8,39.49,81.54,39.49,81.25Z" fill="#05143b"/>
    <path d="M71.33,92.78h-8a3,3,0,0,1-3-3v-1.3a3,3,0,0,1,3-3h8a3,3,0,0,1,3,3v1.3A3,3,0,0,1,71.33,92.78Zm-8-5.19a.92.92,0,0,0-.91.92v1.3a.91.91,0,0,0,.91.91h8a.91.91,0,0,0,.91-.91v-1.3a.92.92,0,0,0-.91-.92Z" fill="#05143b"/>
    <path d="M87.74,63.71v1.73l-4.3,9.84h-2.9l4.14-9.39H80.85v1.88H78.47V63.71Z" fill="#05143b"/>
    <path d="M73.79,78.22a.69.69,0,0,1-.28-.94l3.79-7.07a.7.7,0,0,1,1.23.65l-3.8,7.07A.69.69,0,0,1,73.79,78.22Z" fill="#05143b"/>
    <path d="M92.08,49.69a30.42,30.42,0,0,0-24.62-8.8,29.49,29.49,0,0,0-14.92,5.6,33.85,33.85,0,0,0-7,6.69,1.34,1.34,0,0,0,1.07,2.16,1.35,1.35,0,0,0,1-.52,30.77,30.77,0,0,1,2.06-2.4,27.82,27.82,0,0,1,20.2-9,26.87,26.87,0,0,1,16.23,4.88,30.56,30.56,0,0,1,9.34,10.08,1.33,1.33,0,1,0,2.33-1.29A32.36,32.36,0,0,0,92.08,49.69Z" fill="#05143b"/>
  </g>
  <g>
    <g>
      <path d="M61.2,72.1v2.18H52.44V72.55l4.47-4.22a4.56,4.56,0,0,0,1-1.17,2.06,2.06,0,0,0,.25-1,1.27,1.27,0,0,0-.47-1.06,2.2,2.2,0,0,0-1.38-.38,3.25,3.25,0,0,0-1.38.29,2.67,2.67,0,0,0-1,.87l-2-1.26a4.68,4.68,0,0,1,1.87-1.58,6.29,6.29,0,0,1,2.73-.57,5.63,5.63,0,0,1,2.26.42,3.5,3.5,0,0,1,1.51,1.2,3.05,3.05,0,0,1,.54,1.81,4.1,4.1,0,0,1-.4,1.77,6.87,6.87,0,0,1-1.54,1.88L56.22,72.1Z" fill="#fff"/>
      <path d="M72.75,71.87l-1.89,0v2.43H68.24V71.85H62v-1.8l5.46-7.35h2.81l-5.06,7h3.11V67.5h2.53v2.17l1.89,0Z" fill="#fff"/>
    </g>
    <circle cx="43.05" cy="56.59" r="1.48" fill="#fff"/>
    <path d="M99,80.57H94.71a1.66,1.66,0,0,1-1.33-.51,1.81,1.81,0,0,1-.49-1.33c0-.45,0-.91,0-1.36V62.16a1.81,1.81,0,0,1,1.8-1.81H102a4,4,0,0,1,4.12,4.09q0,6,0,12a4,4,0,0,1-4.06,4.09C101.07,80.56,100.06,80.57,99,80.57Zm-3.29-2.86h1.56c1.58,0,3.15,0,4.73,0a1.15,1.15,0,0,0,1.26-1.25q0-6,0-12A1.16,1.16,0,0,0,102,63.21H95.75v14.5Z" fill="#fff"/>
    <path d="M39.43,80.57c-1,0-2,0-3,0a4,4,0,0,1-4.07-4.09q0-6,0-12a4,4,0,0,1,4.13-4.09h7.32a1.81,1.81,0,0,1,1.81,1.81v15.2c0,.45,0,.91,0,1.36a1.72,1.72,0,0,1-1.8,1.84H39.43Zm0-17.37h-3a1.16,1.16,0,0,0-1.28,1.26q0,6,0,12a1.15,1.15,0,0,0,1.26,1.25c1.57,0,3.15,0,4.72,0h1.56V63.21h-3.3Z" fill="#fff"/>
    <path d="M38.49,80.25h2.39a22.81,22.81,0,0,0,1.18,3.26,5.83,5.83,0,0,0,5.08,3.22c3.83.13,7.66.06,11.49.08h1v2.57a1.86,1.86,0,0,1-.34.07c-4.09,0-8.18.07-12.27,0a9.18,9.18,0,0,1-8.48-8.35C38.48,80.8,38.49,80.54,38.49,80.25Z" fill="#fff"/>
    <path d="M70.33,91.78h-8a3,3,0,0,1-3-3v-1.3a3,3,0,0,1,3-3h8a3,3,0,0,1,3,3v1.3A3,3,0,0,1,70.33,91.78Zm-8-5.19a.92.92,0,0,0-.91.92v1.3a.91.91,0,0,0,.91.91h8a.91.91,0,0,0,.91-.91v-1.3a.92.92,0,0,0-.91-.92Z" fill="#fff"/>
    <path d="M86.74,62.71v1.73l-4.3,9.84h-2.9l4.14-9.39H79.85v1.88H77.47V62.71Z" fill="#fff"/>
    <path d="M72.79,77.22a.69.69,0,0,1-.28-.94l3.79-7.07a.7.7,0,0,1,1.23.65l-3.8,7.07A.69.69,0,0,1,72.79,77.22Z" fill="#fff"/>
    <path d="M91.08,48.69a30.42,30.42,0,0,0-24.62-8.8,29.49,29.49,0,0,0-14.92,5.6,33.85,33.85,0,0,0-7,6.69,1.34,1.34,0,0,0,1.07,2.16,1.35,1.35,0,0,0,1-.52,30.77,30.77,0,0,1,2.06-2.4,27.82,27.82,0,0,1,20.2-9,26.87,26.87,0,0,1,16.23,4.88,30.56,30.56,0,0,1,9.34,10.08,1.33,1.33,0,1,0,2.33-1.29A32.36,32.36,0,0,0,91.08,48.69Z" fill="#fff"/>
  </g>
</svg>
