<svg id="Layer_1" data-name="Layer 1" xmlns="http://www.w3.org/2000/svg" xmlns:xlink="http://www.w3.org/1999/xlink" viewBox="0 0 143.35 146.45">
  <defs>
    <linearGradient id="linear-gradient" x1="78.62" y1="34.94" x2="-28.04" y2="121.6" gradientTransform="translate(45.05 0.87) rotate(-1.62)" gradientUnits="userSpaceOnUse">
      <stop offset="0" stop-color="#fdd85c"/>
      <stop offset="0.1" stop-color="#fdd960"/>
      <stop offset="0.18" stop-color="#fddc6a"/>
      <stop offset="0.26" stop-color="#fde07c"/>
      <stop offset="0.34" stop-color="#fee696"/>
      <stop offset="0.42" stop-color="#feeeb7"/>
      <stop offset="0.49" stop-color="#fff8df"/>
      <stop offset="0.53" stop-color="#fffdf2"/>
      <stop offset="0.67" stop-color="#fee8b1"/>
      <stop offset="0.88" stop-color="#fdcc57"/>
      <stop offset="1" stop-color="#fdb570"/>
    </linearGradient>
    <linearGradient id="linear-gradient-2" x1="-24.66" y1="22.12" x2="70.7" y2="117.48" gradientTransform="translate(45.05 0.87) rotate(-1.62)" gradientUnits="userSpaceOnUse">
      <stop offset="0" stop-color="#3bb8df"/>
      <stop offset="1" stop-color="#2f61e9"/>
    </linearGradient>
    <linearGradient id="linear-gradient-3" x1="-18.14" y1="28.64" x2="62.83" y2="109.6" gradientTransform="translate(45.05 0.87) rotate(-1.62)" gradientUnits="userSpaceOnUse">
      <stop offset="0" stop-color="#2f61e9"/>
      <stop offset="1" stop-color="#3bb8df"/>
    </linearGradient>
  </defs>
  <title>Secure Platform</title>
  <circle cx="74.02" cy="77.12" r="69.33" fill="url(#linear-gradient)"/>
  <circle cx="69.33" cy="69.33" r="69.33" fill="url(#linear-gradient-2)"/>
  <circle cx="69.33" cy="69.33" r="55.75" fill="none" stroke-miterlimit="10" stroke-width="3" stroke="url(#linear-gradient-3)"/>
  <g opacity="0.24">
    <path d="M60.62,54.61,58.78,52l1.81-4.39,8-2.8a1.19,1.19,0,0,0,.55-.39L72.68,40a29,29,0,0,1,25.4,21.48,3.58,3.58,0,0,0-1.62,2.89C95.24,61,95.83,62,93.53,59.29c-1.12-1.31-2.46-1.08-4.21-1.08A1.79,1.79,0,0,0,87.83,61l.19.28A13.76,13.76,0,0,1,84,63.69L81.4,58.8c0-2,.33-1.29-2.68-4.17a1.34,1.34,0,0,0-.44-.27l-2.07-.73A1.24,1.24,0,0,0,75.39,56l1.82.64,1.72,1.64c0,1.67-.43.34,3.33,7.55a1.23,1.23,0,0,0,1.52.59,16.72,16.72,0,0,0,6.72-4,1.22,1.22,0,0,0,.09-1.65c.42,0,.82-.08,1.07.22,2,2.35,1.28,1,3.31,6.58a1.25,1.25,0,0,0,.89.79c.84.18,1.31-.51,1.94-1.13a4,4,0,0,0,1-1.86A29.23,29.23,0,0,1,88,91.85a1.23,1.23,0,0,0,1.52,1.94c20.43-16,13.68-48.61-11.35-55.32A31.56,31.56,0,0,0,39.46,60.8c-6.67,24.89,17.82,46.88,41.8,37.66a1.23,1.23,0,1,0-.88-2.3,29,29,0,0,1-27.84-3.82l1.11-5.77.53-.18a3.84,3.84,0,0,0,2.47-4.83c-.33-1-.59-1.45-.39-2.06a3.84,3.84,0,0,0-2.92-5L50.56,74l-5.37-4.09a1.24,1.24,0,0,0-1.13-.19l-3.15,1a29.14,29.14,0,0,1,0-3.37l.25.25a1.29,1.29,0,0,0,1.21.62c.77,0,3.54-.46,4.3-.58a1.24,1.24,0,0,0,.81-1.92L46,63.52,48.14,62a1.35,1.35,0,0,0,.35-.4c3.95-6.88,3-5.45,4.71-7.31A5.32,5.32,0,0,0,52,46.1a28.91,28.91,0,0,1,17.67-6.23l-2.21,2.76L59.25,45.5a1.24,1.24,0,0,0-.73.69l-2.28,5.53a1.24,1.24,0,0,0,.14,1.19l3.33,4.67a23.9,23.9,0,0,0-2.13,2.71,14.08,14.08,0,0,0-2.4,3.22,7.08,7.08,0,0,0,8.36,10c1.05-.27,1.39-.29,1.73,0,.16.15.18.18.18.7a3.51,3.51,0,0,0,1.15,2.93c1.06,1.16.65,2,.2,3.42-.75,2.31.91,4.62,1.48,6.31,1.08,3.22,2,4.58,3.68,4.58s3.64-1.65,4.49-2.7a3.7,3.7,0,0,0,.76-1.8c.24-1.18,1.07-1.14,1.58-2.74a3.59,3.59,0,0,1,1.1-1.61c1.65-1.79,1.23-3.16.78-4.6-.65-2.09,2.26-3.31,3.83-5.59A2.66,2.66,0,0,0,85,70c-.45-1-1.58-1.21-2.5-1.35S80.85,68.78,79,64a10.37,10.37,0,0,0-1.83-3.4c-1.07-1.13-3.54-1.48-4.66-1.9a1.19,1.19,0,0,0-.7,0,2.21,2.21,0,0,0-1.76,1.13,13.28,13.28,0,0,1-1.48-.9c.33-1.29-.75-2.73-3.54-2.49-.93.08-1.51,0-2.64.15M44.21,72.27l5.08,3.86a1.12,1.12,0,0,0,.51.23l3.07.6a1.37,1.37,0,0,1,1,1.77c-.45,1.38,0,2.29.39,3.59a1.38,1.38,0,0,1-.88,1.73l-1.23.39a1.24,1.24,0,0,0-.83,1l-1,5.15a29.37,29.37,0,0,1-9.2-17.29ZM51.4,52.59c-2.08,2.22-.78.32-4.92,7.53l-2.93,2.1a1.24,1.24,0,0,0-.3,1.7l1.1,1.6c-.64.1-1.2.18-1.58.22-.41-.4-1.1-1-1.53-1.38a29.14,29.14,0,0,1,8.69-16.51A2.93,2.93,0,0,1,51.4,52.59Zm12.82,6.35c.41,0,1.26-.07,1.56,0a1.26,1.26,0,0,0-.06.64,1.23,1.23,0,0,0,.63.9,10.5,10.5,0,0,1,.9.56c1.7,1.14,3.35,2.18,4.76.74a1.61,1.61,0,0,0,.38-.46c4,1.15,2.84.44,5.13,5.56,1.74,3.87,2.93,4,4.91,4.27-1.43,2-5.31,3.82-4.12,7.66.46,1.48.43,1.49-.49,2.47a5.28,5.28,0,0,0-1.39,2.26c-.31,1-1.22,1-1.64,3a1.5,1.5,0,0,1-.25.72c-.47.58-1.88,1.83-2.59,1.79a8.57,8.57,0,0,1-1.33-2.9c-.7-2.07-1.91-3.42-1.38-5a5.39,5.39,0,0,0,.08-4.27,4.47,4.47,0,0,0-.89-1.28c-.52-.56-.52-.56-.52-1.25a3.07,3.07,0,0,0-1-2.53,4,4,0,0,0-4-.62c-4.67,1.16-7.13-3.14-5.53-6.55.62-1.3,1.58-1.94,2.82-3.71S61.25,59.05,64.22,58.94Z" fill="#05143b"/>
    <path d="M89,79.86l-.59-2.24a1.24,1.24,0,0,0-2.28-.27c-1,1.94-.61,1.78-1.71,2.31-1.64.79-2.44,1.72-2.14,3.74a1.09,1.09,0,0,1,0,.73c-.61,1.42-1,2.85-.11,4.12a2.52,2.52,0,0,0,2.42,1.29c2.25-.37,2.92-3.9,4.43-9A1.14,1.14,0,0,0,89,79.86Zm-4.77,7.08-.07-.1c-.24-.34.11-1.17.35-1.71A3.37,3.37,0,0,0,84.68,83c-.14-1,.09-.72,1.39-1.47C85.42,83.76,84.87,86,84.19,86.94Z" fill="#05143b"/>
  </g>
  <g>
    <path d="M60.22,53.61,58.38,51l1.81-4.39,8-2.8a1.19,1.19,0,0,0,.55-.39L72.28,39a29,29,0,0,1,25.4,21.48,3.58,3.58,0,0,0-1.62,2.89C94.84,60,95.43,61,93.13,58.29,92,57,90.67,57.21,88.92,57.21A1.79,1.79,0,0,0,87.43,60l.19.28a13.76,13.76,0,0,1-4.07,2.42L81,57.8c0-2,.33-1.29-2.68-4.17a1.34,1.34,0,0,0-.44-.27l-2.07-.73A1.24,1.24,0,0,0,75,55l1.82.64,1.72,1.64c0,1.67-.43.34,3.33,7.55a1.23,1.23,0,0,0,1.52.59,16.72,16.72,0,0,0,6.72-4,1.22,1.22,0,0,0,.09-1.65c.42,0,.82-.08,1.07.22,2,2.35,1.28,1,3.31,6.58a1.25,1.25,0,0,0,.89.79c.84.18,1.31-.51,1.94-1.13a4,4,0,0,0,1-1.86A29.23,29.23,0,0,1,87.57,90.85a1.23,1.23,0,0,0,1.52,1.94c20.43-16,13.68-48.61-11.35-55.32A31.56,31.56,0,0,0,39.06,59.8c-6.67,24.89,17.82,46.88,41.8,37.66a1.23,1.23,0,0,0-.88-2.3,29,29,0,0,1-27.84-3.82l1.11-5.77.53-.18a3.84,3.84,0,0,0,2.47-4.83c-.33-1-.59-1.45-.39-2.06a3.84,3.84,0,0,0-2.92-5L50.16,73l-5.37-4.09a1.24,1.24,0,0,0-1.13-.19l-3.15,1a29.14,29.14,0,0,1,0-3.37l.25.25a1.29,1.29,0,0,0,1.21.62c.77,0,3.54-.46,4.3-.58a1.24,1.24,0,0,0,.81-1.92l-1.51-2.22L47.74,61a1.35,1.35,0,0,0,.35-.4c3.95-6.88,3-5.45,4.71-7.31a5.32,5.32,0,0,0-1.24-8.17,28.91,28.91,0,0,1,17.67-6.23L67,41.63,58.85,44.5a1.24,1.24,0,0,0-.73.69l-2.28,5.53A1.24,1.24,0,0,0,56,51.91l3.33,4.67a23.9,23.9,0,0,0-2.13,2.71,14.08,14.08,0,0,0-2.4,3.22,7.08,7.08,0,0,0,8.36,10c1-.27,1.39-.29,1.73,0,.16.15.18.18.18.7a3.51,3.51,0,0,0,1.15,2.93c1.06,1.16.65,2,.2,3.42-.75,2.31.91,4.62,1.48,6.31,1.08,3.22,2,4.58,3.68,4.58s3.64-1.65,4.49-2.7a3.7,3.7,0,0,0,.76-1.8c.24-1.18,1.07-1.14,1.58-2.74a3.59,3.59,0,0,1,1.1-1.61c1.65-1.79,1.23-3.16.78-4.6-.65-2.09,2.26-3.31,3.83-5.59A2.66,2.66,0,0,0,84.63,69c-.45-1-1.58-1.21-2.5-1.35s-1.68.16-3.51-4.59a10.37,10.37,0,0,0-1.83-3.4c-1.07-1.13-3.54-1.48-4.66-1.9a1.19,1.19,0,0,0-.7,0,2.21,2.21,0,0,0-1.76,1.13,13.28,13.28,0,0,1-1.48-.9c.33-1.29-.75-2.73-3.54-2.49-.93.08-1.51,0-2.64.15M43.81,71.27l5.08,3.86a1.12,1.12,0,0,0,.51.23l3.07.6a1.37,1.37,0,0,1,1,1.77c-.45,1.38,0,2.29.39,3.59A1.38,1.38,0,0,1,53,83.05l-1.23.39a1.24,1.24,0,0,0-.83,1l-1,5.15a29.37,29.37,0,0,1-9.2-17.29ZM51,51.59c-2.08,2.22-.78.32-4.92,7.53l-2.93,2.1a1.24,1.24,0,0,0-.3,1.7l1.1,1.6c-.64.1-1.2.18-1.58.22-.41-.4-1.1-1-1.53-1.38a29.14,29.14,0,0,1,8.69-16.51A2.93,2.93,0,0,1,51,51.59Zm12.82,6.35c.41,0,1.26-.07,1.56,0a1.26,1.26,0,0,0-.06.64,1.23,1.23,0,0,0,.63.9,10.5,10.5,0,0,1,.9.56c1.7,1.14,3.35,2.18,4.76.74a1.61,1.61,0,0,0,.38-.46c4,1.15,2.84.44,5.13,5.56,1.74,3.87,2.93,4,4.91,4.27-1.43,2-5.31,3.82-4.12,7.66.46,1.48.43,1.49-.49,2.47A5.28,5.28,0,0,0,76,82.49c-.31,1-1.22,1-1.64,3a1.5,1.5,0,0,1-.25.72c-.47.58-1.88,1.83-2.59,1.79a8.57,8.57,0,0,1-1.33-2.9c-.7-2.07-1.91-3.42-1.38-5a5.39,5.39,0,0,0,.08-4.27A4.47,4.47,0,0,0,68,74.51c-.52-.56-.52-.56-.52-1.25a3.07,3.07,0,0,0-1-2.53,4,4,0,0,0-4-.62C57.87,71.27,55.41,67,57,63.56c.62-1.3,1.58-1.94,2.82-3.71S60.85,58.05,63.82,57.94Z" fill="#fff"/>
    <path d="M88.56,78.86,88,76.62a1.24,1.24,0,0,0-2.28-.27c-1,1.94-.61,1.78-1.71,2.31-1.64.79-2.44,1.72-2.14,3.74a1.09,1.09,0,0,1,0,.73c-.61,1.42-1,2.85-.11,4.12a2.52,2.52,0,0,0,2.42,1.29c2.25-.37,2.92-3.9,4.43-9A1.14,1.14,0,0,0,88.56,78.86Zm-4.77,7.08-.07-.1c-.24-.34.11-1.17.35-1.71A3.37,3.37,0,0,0,84.28,82c-.14-1,.09-.72,1.39-1.47C85,82.76,84.47,85,83.79,85.94Z" fill="#fff"/>
  </g>
</svg>
