<svg xmlns="http://www.w3.org/2000/svg" viewBox="0 0 50.03 42.95">
  <title>Asset 1</title>
  <g id="Layer_2" data-name="Layer 2">
    <g id="Layer_1-2" data-name="Layer 1">
      <path d="M27.62,10.58a.06.06,0,0,1-.06-.06m-20,17.68V35.8a6,6,0,0,0,6,6H42.88a6,6,0,0,0,6-6V12.62a2,2,0,0,0-2-2H31.78" fill="none" stroke="#6881b4" stroke-linecap="round" stroke-linejoin="round" stroke-width="2.3"/>
      <path d="M38.33,35.22H24.83a3.08,3.08,0,0,1-3.08-3.08V27.21a2,2,0,0,1,2-2H39.41a2,2,0,0,1,2,2v4.94A3.08,3.08,0,0,1,38.33,35.22ZM7.69,6.76H4.34A3.34,3.34,0,0,0,1,10.11C1,12,3.18,13.45,5,13.45H7.69ZM22.22,17.13V2.34a1.33,1.33,0,0,0-1.87-1.22L7.6,6.76v6.69l12.81,4.92A1.33,1.33,0,0,0,22.22,17.13ZM6,22.74A1.62,1.62,0,0,0,7.6,21.12V13.45H4.36v7.67A1.62,1.62,0,0,0,6,22.74Z" fill="none" stroke="#0476e4" stroke-miterlimit="10" stroke-width="2"/>
      <path d="M2.45,28.39" fill="none" stroke="#6881b4" stroke-linecap="round" stroke-linejoin="round" stroke-width="2"/>
    </g>
  </g>
</svg>
