<svg xmlns="http://www.w3.org/2000/svg" viewBox="0 0 92.31 69.54">
  <title>Asset 1</title>
  <g id="Layer_2" data-name="Layer 2">
    <g id="Layer_1-2" data-name="Layer 1">
      <path d="M69.66,24.88" fill="none" stroke="#001f5d" stroke-miterlimit="10" stroke-width="3"/>
      <g>
        <path d="M18.64,54a4,4,0,0,1-4-4V6.86A5.87,5.87,0,0,1,20.5,1H85.45a5.87,5.87,0,0,1,5.86,5.86V47.05A7,7,0,0,1,84.37,54Z" fill="#fff"/>
        <path d="M85.45,2a4.87,4.87,0,0,1,4.86,4.86V47.05A6,6,0,0,1,84.37,53H18.64a3,3,0,0,1-3-3V6.86A4.87,4.87,0,0,1,20.5,2H85.45m0-2H20.5a6.86,6.86,0,0,0-6.86,6.86V50a5,5,0,0,0,5,5H84.37a7.94,7.94,0,0,0,7.94-7.94V6.86A6.86,6.86,0,0,0,85.45,0Z" fill="#0476e4"/>
      </g>
      <circle cx="35.94" cy="25.25" r="2.95" fill="#6881b4"/>
      <circle cx="35.9" cy="29.41" r="12.3" fill="#6881b4" opacity="0.2"/>
      <path d="M32.85,31.24l-1.56,2.48A2.13,2.13,0,0,0,33.09,37h6a2.13,2.13,0,0,0,1.8-3.27l-1.56-2.48A3.82,3.82,0,0,0,32.85,31.24Z" fill="#6881b4"/>
      <path d="M20.94.83H84.69a6.44,6.44,0,0,1,6.44,6.44V8.51a0,0,0,0,1,0,0H14.51a0,0,0,0,1,0,0V7.27A6.44,6.44,0,0,1,20.94.83Z" fill="#0476e4"/>
      <path d="M58.31,39.33H71.56a3.83,3.83,0,0,0,0-7.67H58.31a3.83,3.83,0,0,0,0,7.67Z" fill="none" stroke="#6881b4" stroke-linecap="round" stroke-linejoin="round" stroke-width="2"/>
      <line x1="54.48" y1="19.5" x2="80.31" y2="19.5" fill="none" stroke="#6881b4" stroke-linecap="round" stroke-linejoin="round" stroke-width="2"/>
      <line x1="54.48" y1="25.16" x2="65.31" y2="25.16" fill="none" stroke="#6881b4" stroke-linecap="round" stroke-linejoin="round" stroke-width="2"/>
      <circle cx="15.65" cy="53.89" r="15.65" fill="#001f5d"/>
      <line x1="15.65" y1="47.63" x2="15.65" y2="60.15" fill="none" stroke="#fff" stroke-linecap="round" stroke-linejoin="round" stroke-width="2"/>
      <line x1="9.39" y1="53.89" x2="21.91" y2="53.89" fill="none" stroke="#fff" stroke-linecap="round" stroke-linejoin="round" stroke-width="2"/>
    </g>
  </g>
</svg>
