<svg id="Layer_1" data-name="Layer 1" xmlns="http://www.w3.org/2000/svg" xmlns:xlink="http://www.w3.org/1999/xlink" viewBox="0 0 143.13 146.58">
  <defs>
    <linearGradient id="linear-gradient" x1="125.61" y1="35.15" x2="18.95" y2="121.81" gradientUnits="userSpaceOnUse">
      <stop offset="0" stop-color="#fdd85c"/>
      <stop offset="0.1" stop-color="#fdd960"/>
      <stop offset="0.18" stop-color="#fddc6a"/>
      <stop offset="0.26" stop-color="#fde07c"/>
      <stop offset="0.34" stop-color="#fee696"/>
      <stop offset="0.42" stop-color="#feeeb7"/>
      <stop offset="0.49" stop-color="#fff8df"/>
      <stop offset="0.53" stop-color="#fffdf2"/>
      <stop offset="0.67" stop-color="#fee8b1"/>
      <stop offset="0.88" stop-color="#fdcc57"/>
      <stop offset="1" stop-color="#fdb570"/>
    </linearGradient>
    <linearGradient id="linear-gradient-2" x1="22.33" y1="22.33" x2="117.69" y2="117.69" gradientUnits="userSpaceOnUse">
      <stop offset="0" stop-color="#3bb8df"/>
      <stop offset="1" stop-color="#2f61e9"/>
    </linearGradient>
    <linearGradient id="linear-gradient-3" x1="28.85" y1="28.85" x2="109.82" y2="109.82" gradientUnits="userSpaceOnUse">
      <stop offset="0" stop-color="#2f61e9"/>
      <stop offset="1" stop-color="#3bb8df"/>
    </linearGradient>
  </defs>
  <title>Global Coverage</title>
  <circle cx="73.79" cy="77.25" r="69.33" fill="url(#linear-gradient)"/>
  <circle cx="69.33" cy="69.33" r="69.33" fill="url(#linear-gradient-2)"/>
  <circle cx="69.33" cy="69.33" r="55.75" fill="none" stroke-miterlimit="10" stroke-width="3" stroke="url(#linear-gradient-3)"/>
  <g opacity="0.24">
    <path d="M78.06,82.29v-13a1.39,1.39,0,0,0-1.39-1.39h0V65.29a7.07,7.07,0,0,0-14.14,0v2.59h0a1.39,1.39,0,0,0-1.39,1.39v13a1.39,1.39,0,0,0,1.39,1.39h14.2A1.39,1.39,0,0,0,78.06,82.29ZM63.86,70.66H75.28V80.91H63.86Zm1.42-5.37a4.29,4.29,0,1,1,8.58,0v2.59H65.28Z" fill="#05143b"/>
    <path d="M71,75.57a1.39,1.39,0,0,0-2.78,0V77.3a1.39,1.39,0,0,0,2.78,0Z" fill="#05143b"/>
    <path d="M70.07,103.38a1.12,1.12,0,0,1-.4-.07A40,40,0,0,1,58.8,97.67a1.25,1.25,0,0,1,1.48-2A37.81,37.81,0,0,0,70.48,101a1.25,1.25,0,0,1,.78,1.58A1.26,1.26,0,0,1,70.07,103.38Z" fill="#05143b"/>
    <path d="M55.36,94.32a1.24,1.24,0,0,1-.84-.33c-16.19-14.84-14.07-38-14-39a1.23,1.23,0,0,1,1-1.09c13.69-3,27.65-16.22,27.78-16.35A1.25,1.25,0,1,1,71,39.36c-.57.56-14,13.31-28.06,16.78-.21,4.33-.31,23.6,13.23,36a1.25,1.25,0,0,1,.08,1.76A1.27,1.27,0,0,1,55.36,94.32Z" fill="#05143b"/>
    <path d="M70.07,103.38a1.25,1.25,0,0,1-.46-2.41C94.42,91.19,97.1,62,97.38,56.16,85.42,53.55,70.11,40,69.45,39.39a1.25,1.25,0,1,1,1.66-1.86c.16.14,16.38,14.51,27.76,16.36a1.27,1.27,0,0,1,1,1.24c0,.36-.34,36.72-29.39,48.16A1.25,1.25,0,0,1,70.07,103.38Z" fill="#05143b"/>
    <path d="M88,59.14l-.21,0C81,58,71.79,49.55,71.4,49.19a1.25,1.25,0,0,1,1.69-1.84c.09.08,9.06,8.27,15.12,9.31A1.25,1.25,0,0,1,88,59.14Z" fill="#05143b"/>
  </g>
  <g>
    <path d="M77.22,81.33v-13a1.39,1.39,0,0,0-1.39-1.39h0v-2.6a7.07,7.07,0,0,0-14.14,0v2.6h0a1.38,1.38,0,0,0-1.38,1.39v13a1.38,1.38,0,0,0,1.38,1.39h14.2A1.39,1.39,0,0,0,77.22,81.33ZM63,69.7H74.44V79.94H63Zm1.42-5.38a4.29,4.29,0,0,1,8.58,0v2.6H64.44Z" fill="#fff"/>
    <path d="M70.12,74.61a1.39,1.39,0,0,0-2.78,0v1.73a1.39,1.39,0,0,0,2.78,0Z" fill="#fff"/>
    <path d="M69.24,102.42a1.18,1.18,0,0,1-.41-.07A40.19,40.19,0,0,1,58,96.71a1.25,1.25,0,1,1,1.49-2A37.87,37.87,0,0,0,69.64,100a1.25,1.25,0,0,1-.4,2.44Z" fill="#fff"/>
    <path d="M54.53,93.36a1.26,1.26,0,0,1-.85-.33c-16.18-14.84-14.07-38-14-39a1.27,1.27,0,0,1,1-1.1C54.38,50,68.34,36.73,68.48,36.6a1.25,1.25,0,1,1,1.73,1.8c-.58.56-14,13.3-28.07,16.77-.21,4.34-.3,23.61,13.23,36a1.25,1.25,0,0,1-.84,2.17Z" fill="#fff"/>
    <path d="M69.24,102.42a1.25,1.25,0,0,1-.46-2.42c24.8-9.77,27.48-38.95,27.77-44.81-12-2.6-27.27-16.16-27.94-16.76a1.25,1.25,0,1,1,1.67-1.86c.16.14,16.38,14.51,27.75,16.36a1.25,1.25,0,0,1,1,1.24c0,.36-.33,36.71-29.39,48.16A1.2,1.2,0,0,1,69.24,102.42Z" fill="#fff"/>
    <path d="M87.16,58.18l-.21,0C80.17,57,71,48.59,70.57,48.23a1.25,1.25,0,1,1,1.69-1.84c.09.08,9,8.26,15.11,9.3a1.25,1.25,0,0,1-.21,2.49Z" fill="#fff"/>
  </g>
</svg>
