<svg id="Layer_1" data-name="Layer 1" xmlns="http://www.w3.org/2000/svg" xmlns:xlink="http://www.w3.org/1999/xlink" viewBox="0 0 52.67 52.67">
  <defs>
    <clipPath id="clip-path" transform="translate(0 0)">
      <rect width="52.67" height="52.67" fill="none"/>
    </clipPath>
    <clipPath id="clip-path-2" transform="translate(0 0)">
      <path d="M18.79,24.33a7.55,7.55,0,1,0,7.55-7.55,7.55,7.55,0,0,0-7.55,7.55" fill="none"/>
    </clipPath>
  </defs>
  <title>social-communities</title>
  <g clip-path="url(#clip-path)">
    <path d="M26.34,14.31A11.95,11.95,0,1,1,14.39,26.26,12,12,0,0,1,26.34,14.31m0-2A13.95,13.95,0,1,0,40.28,26.26,13.95,13.95,0,0,0,26.34,12.31" transform="translate(0 0)" fill="#0476e4"/>
    <circle cx="49.13" cy="26.34" r="2.54" transform="translate(-0.78 51.16) rotate(-54.64)" fill="none" stroke="#6881b4" stroke-linecap="round" stroke-linejoin="round" stroke-width="2"/>
    <circle cx="3.54" cy="26.34" r="2.54" transform="translate(-19.99 13.98) rotate(-54.64)" fill="none" stroke="#6881b4" stroke-linecap="round" stroke-linejoin="round" stroke-width="2"/>
    <line x1="6.08" y1="26.34" x2="9.34" y2="26.34" fill="none" stroke="#6881b4" stroke-linecap="round" stroke-linejoin="round" stroke-width="2"/>
    <line x1="43.31" y1="26.34" x2="46.57" y2="26.34" fill="none" stroke="#6881b4" stroke-linecap="round" stroke-linejoin="round" stroke-width="2"/>
    <circle cx="42.45" cy="10.22" r="2.54" transform="translate(-1.11 7.25) rotate(-9.64)" fill="none" stroke="#6881b4" stroke-linecap="round" stroke-linejoin="round" stroke-width="2"/>
    <circle cx="10.22" cy="42.45" r="2.54" transform="matrix(0.99, -0.17, 0.17, 0.99, -6.96, 2.31)" fill="none" stroke="#6881b4" stroke-linecap="round" stroke-linejoin="round" stroke-width="2"/>
    <line x1="12.01" y1="40.66" x2="14.32" y2="38.35" fill="none" stroke="#6881b4" stroke-linecap="round" stroke-linejoin="round" stroke-width="2"/>
    <line x1="38.34" y1="14.33" x2="40.64" y2="12.03" fill="none" stroke="#6881b4" stroke-linecap="round" stroke-linejoin="round" stroke-width="2"/>
    <circle cx="26.34" cy="3.54" r="2.54" transform="translate(8.2 22.97) rotate(-54.63)" fill="none" stroke="#6881b4" stroke-linecap="round" stroke-linejoin="round" stroke-width="2"/>
    <circle cx="26.34" cy="49.13" r="2.54" transform="translate(-28.97 42.17) rotate(-54.63)" fill="none" stroke="#6881b4" stroke-linecap="round" stroke-linejoin="round" stroke-width="2"/>
    <line x1="26.34" y1="46.59" x2="26.34" y2="43.33" fill="none" stroke="#6881b4" stroke-linecap="round" stroke-linejoin="round" stroke-width="2"/>
    <line x1="26.34" y1="9.36" x2="26.34" y2="6.1" fill="none" stroke="#6881b4" stroke-linecap="round" stroke-linejoin="round" stroke-width="2"/>
    <circle cx="10.22" cy="10.22" r="2.54" transform="translate(-1.57 1.86) rotate(-9.64)" fill="none" stroke="#6881b4" stroke-linecap="round" stroke-linejoin="round" stroke-width="2"/>
    <circle cx="42.45" cy="42.45" r="2.54" transform="translate(-6.51 7.71) rotate(-9.64)" fill="none" stroke="#6881b4" stroke-linecap="round" stroke-linejoin="round" stroke-width="2"/>
    <line x1="40.66" y1="40.66" x2="38.35" y2="38.35" fill="none" stroke="#6881b4" stroke-linecap="round" stroke-linejoin="round" stroke-width="2"/>
    <line x1="14.33" y1="14.33" x2="12.03" y2="12.03" fill="none" stroke="#6881b4" stroke-linecap="round" stroke-linejoin="round" stroke-width="2"/>
    <path d="M28.46,23.67a2.29,2.29,0,1,1-2.29-2.29,2.29,2.29,0,0,1,2.29,2.29" transform="translate(0 0)" fill="#6881b4"/>
  </g>
  <g clip-path="url(#clip-path-2)">
    <path d="M24.44,27.69l-1.79,2.11a2.48,2.48,0,0,0,1.89,4.09h3.58A2.48,2.48,0,0,0,30,29.79l-1.79-2.11a2.48,2.48,0,0,0-3.78,0" transform="translate(0 0)" fill="#6881b4"/>
  </g>
</svg>
