<svg xmlns="http://www.w3.org/2000/svg" xmlns:xlink="http://www.w3.org/1999/xlink" viewBox="0 0 42 39.02">
  <defs>
    <clipPath id="clip-path">
      <rect width="42" height="39.02" fill="none"/>
    </clipPath>
  </defs>
  <title>Asset 1</title>
  <g id="Layer_2" data-name="Layer 2">
    <g id="Layer_1-2" data-name="Layer 1">
      <g clip-path="url(#clip-path)">
        <path d="M36.95,29.81V32a6.1,6.1,0,0,1-6.1,6.1H7A6.1,6.1,0,0,1,.9,32V15.26a2.93,2.93,0,0,1,2.94-2.93H34a2.93,2.93,0,0,1,2.93,2.93v5.17" fill="none" stroke="#0476e4" stroke-miterlimit="10" stroke-width="1.8"/>
        <path d="M36.36,29.81H27.63a4.74,4.74,0,1,1,0-9.48h8.74a4.74,4.74,0,1,1,0,9.48Z" fill="none" stroke="#0476e4" stroke-miterlimit="10" stroke-width="1.8"/>
        <path d="M27.7,23.38a1.69,1.69,0,1,0,1.69,1.69,1.69,1.69,0,0,0-1.69-1.69" fill="#0476e4"/>
        <path d="M6.42,12.63A2.59,2.59,0,0,1,6.42,9l7.3-7.3a2.6,2.6,0,0,1,3.67,0L28.13,12.4" fill="none" stroke="#0476e4" stroke-miterlimit="10" stroke-width="1.8"/>
        <path d="M13.21,25.09H8.9v-3.8h4.32a1.9,1.9,0,1,1,0,3.8Z" fill="none" stroke="#6881b4" stroke-miterlimit="10" stroke-width="1.7"/>
        <path d="M13.21,28.9H8.9v-3.8h4.32a1.9,1.9,0,1,1,0,3.8Z" fill="none" stroke="#6881b4" stroke-miterlimit="10" stroke-width="1.7"/>
        <line x1="11.34" y1="21.29" x2="11.34" y2="18.76" fill="none" stroke="#6881b4" stroke-miterlimit="10" stroke-width="1.7"/>
        <line x1="11.34" y1="31.85" x2="11.34" y2="29.32" fill="none" stroke="#6881b4" stroke-miterlimit="10" stroke-width="1.7"/>
      </g>
    </g>
  </g>
</svg>
