<svg id="Layer_1" data-name="Layer 1" xmlns="http://www.w3.org/2000/svg" xmlns:xlink="http://www.w3.org/1999/xlink" viewBox="0 0 93.39 84.62">
  <defs>
    <linearGradient id="New_Gradient_Swatch_2" data-name="New Gradient Swatch 2" x1="254.09" y1="2258.44" x2="328.97" y2="2323.12" gradientUnits="userSpaceOnUse">
      <stop offset="0" stop-color="#fdd759"/>
      <stop offset="0.02" stop-color="#fbdb6d"/>
      <stop offset="0.07" stop-color="#f4e9ab"/>
      <stop offset="0.11" stop-color="#eff3d9"/>
      <stop offset="0.15" stop-color="#ecfaf5"/>
      <stop offset="0.17" stop-color="#ebfcff"/>
      <stop offset="0.21" stop-color="#f0f0d4"/>
      <stop offset="0.25" stop-color="#f4e4a9"/>
      <stop offset="0.3" stop-color="#f8db87"/>
      <stop offset="0.34" stop-color="#fbd46f"/>
      <stop offset="0.38" stop-color="#fcd060"/>
      <stop offset="0.41" stop-color="#fdcf5b"/>
      <stop offset="0.52" stop-color="#fdc859"/>
      <stop offset="0.69" stop-color="#fdb355"/>
      <stop offset="0.89" stop-color="#fd924d"/>
      <stop offset="1" stop-color="#fd7e49"/>
    </linearGradient>
    <linearGradient id="New_Gradient_Swatch" data-name="New Gradient Swatch" x1="235.19" y1="2304.6" x2="319.96" y2="2304.6" gradientUnits="userSpaceOnUse">
      <stop offset="0" stop-color="#39c3dc"/>
      <stop offset="1" stop-color="#2952ed"/>
    </linearGradient>
    <linearGradient id="New_Gradient_Swatch_copy" data-name="New Gradient Swatch copy" x1="254.22" y1="2333.05" x2="295.28" y2="2295.55" gradientTransform="translate(96.22 -13.99) rotate(2.41)" gradientUnits="userSpaceOnUse">
      <stop offset="0" stop-color="#2952ed"/>
      <stop offset="1" stop-color="#39c3dc"/>
    </linearGradient>
  </defs>
  <title>coin2</title>
  <g>
    <path d="M319.48,2291.05c-17.22-24.08-51.38-41.38-67.27-32.22-2.29,1.45-1.24.66-13.84,13,11.79-11.55,50.28,6.23,71.13,33.51,5.45,7.12,13.49,21.36,9.39,29.09C327.39,2320.89,335.31,2313.16,319.48,2291.05Z" transform="translate(-235.19 -2256.34)" fill="url(#New_Gradient_Swatch_2)"/>
    <path d="M309.5,2305.34c24.31,31.8,3.39,47.48-33.68,25.12-32.32-19.48-51.4-53.23-34.13-60.84C256.71,2263,290.8,2280.86,309.5,2305.34Z" transform="translate(-235.19 -2256.34)" fill="url(#New_Gradient_Swatch)"/>
    <path d="M253.83,2311.59a61.37,61.37,0,0,1-7.16-10.12,34.11,34.11,0,0,1-3.69-9.58,14.7,14.7,0,0,1,.43-8.21,9.51,9.51,0,0,1,5.7-5.42c3-1.15,6.81-1.3,11.13-.54a53,53,0,0,1,14.59,5.21,82.88,82.88,0,0,1,15.38,10.31,78.09,78.09,0,0,1,12.87,13.67,43.36,43.36,0,0,1,6.83,13.26c1.07,3.82,1.09,7.11.17,9.73a9.42,9.42,0,0,1-5.07,5.53,17.75,17.75,0,0,1-9,1.24,40.7,40.7,0,0,1-11-2.65,69.23,69.23,0,0,1-11.11-5.48,86.71,86.71,0,0,1-10.6-7.59,81.67,81.67,0,0,1-9.52-9.36m50.79-4.83a81.61,81.61,0,0,0-13.54-14.42,86.7,86.7,0,0,0-16.23-10.85,55.06,55.06,0,0,0-15.33-5.41c-4.53-.77-8.5-.57-11.62.68a9.91,9.91,0,0,0-5.86,5.77,15.59,15.59,0,0,0-.35,8.63,35.44,35.44,0,0,0,3.9,10,63.61,63.61,0,0,0,7.47,10.51,84.73,84.73,0,0,0,9.89,9.71,89.49,89.49,0,0,0,11,7.88,72.3,72.3,0,0,0,11.54,5.72,43.23,43.23,0,0,0,11.43,2.81,18.9,18.9,0,0,0,9.45-1.21,9.92,9.92,0,0,0,5.42-5.7c1-2.73,1-6.17-.06-10.17a44.59,44.59,0,0,0-7.1-13.94" transform="translate(-235.19 -2256.34)" fill="url(#New_Gradient_Swatch_copy)"/>
  </g>
  <path d="M275.41,2314.9l.09,2.31-5-4.31-.11-2.37L255,2297.39l3.68-5.73,11.3,9.66-.13-2.31,5,4.29.22,2.39,6.34,5.42,5.54-8.62,6.41,5.49-9.24,14.37Z" transform="translate(-235.19 -2256.34)" fill="#fff"/>
</svg>
