<svg id="Layer_1" data-name="Layer 1" xmlns="http://www.w3.org/2000/svg" xmlns:xlink="http://www.w3.org/1999/xlink" viewBox="0 0 94.09 87.3">
  <defs>
    <linearGradient id="New_Gradient_Swatch" data-name="New Gradient Swatch" x1="268.22" y1="2408.82" x2="330.97" y2="2472.35" gradientUnits="userSpaceOnUse">
      <stop offset="0" stop-color="#fdd759"/>
      <stop offset="0.02" stop-color="#fbdb6d"/>
      <stop offset="0.07" stop-color="#f4e9ab"/>
      <stop offset="0.11" stop-color="#eff3d9"/>
      <stop offset="0.15" stop-color="#ecfaf5"/>
      <stop offset="0.17" stop-color="#ebfcff"/>
      <stop offset="0.21" stop-color="#f0f0d4"/>
      <stop offset="0.25" stop-color="#f4e4a9"/>
      <stop offset="0.3" stop-color="#f8db87"/>
      <stop offset="0.34" stop-color="#fbd46f"/>
      <stop offset="0.38" stop-color="#fcd060"/>
      <stop offset="0.41" stop-color="#fdcf5b"/>
      <stop offset="0.52" stop-color="#fdc859"/>
      <stop offset="0.69" stop-color="#fdb355"/>
      <stop offset="0.89" stop-color="#fd924d"/>
      <stop offset="1" stop-color="#fd7e49"/>
    </linearGradient>
    <linearGradient id="linear-gradient" x1="286.47" y1="2422.82" x2="341.61" y2="2427.52" gradientUnits="userSpaceOnUse">
      <stop offset="0" stop-color="#39c3dc"/>
      <stop offset="1" stop-color="#2952ed"/>
    </linearGradient>
    <linearGradient id="New_Gradient_Swatch_copy" data-name="New Gradient Swatch copy" x1="295.25" y1="2438.8" x2="331.57" y2="2408.32" gradientUnits="userSpaceOnUse">
      <stop offset="0" stop-color="#2952ed"/>
      <stop offset="1" stop-color="#39c3dc"/>
    </linearGradient>
  </defs>
  <title>coin3</title>
  <path d="M338.17,2463.16c-22.2.54-52.24-23.17-63.34-43.45-.4,0-8.81-14.95-3.22-26.12l-8,12.92c-18.32,29.44,50.85,84.48,74.95,62.86C358,2451.89,348.5,2462.91,338.17,2463.16Z" transform="translate(-260.52 -2386.98)" fill="url(#New_Gradient_Swatch)"/>
  <path d="M288.63,2437.83c-52.91-53.51,11.8-74,55-15.67C376.22,2466.26,329.88,2479.55,288.63,2437.83Z" transform="translate(-260.52 -2386.98)" fill="url(#linear-gradient)"/>
  <path d="M298.54,2392.48a23.69,23.69,0,0,0-10.17.68,12.37,12.37,0,0,0-6.72,4.94,14.34,14.34,0,0,0-2,9.11,32.34,32.34,0,0,0,4.28,12.84,62.46,62.46,0,0,0,10.72,13.89,77.42,77.42,0,0,0,14.52,11.31,60.73,60.73,0,0,0,15.32,6.73,30.72,30.72,0,0,0,13.23,1,13.5,13.5,0,0,0,8.33-4.45,13,13,0,0,0,2.81-7.94,25.31,25.31,0,0,0-1.85-9.82,47.67,47.67,0,0,0-5.92-10.69,69,69,0,0,0-8.92-10.06,77.91,77.91,0,0,0-10.51-8.24,68.05,68.05,0,0,0-11.42-6.07,46,46,0,0,0-11.69-3.2m40.31,62.24a32.08,32.08,0,0,1-13.91-.94,63.44,63.44,0,0,1-16.2-7.06,80.79,80.79,0,0,1-15.37-12,65.34,65.34,0,0,1-11.28-14.7,33.46,33.46,0,0,1-4.42-13.53,14.83,14.83,0,0,1,2.24-9.53,13,13,0,0,1,7.14-5.09,25,25,0,0,1,10.69-.65,48.88,48.88,0,0,1,12.23,3.39,72.49,72.49,0,0,1,11.9,6.35,82.17,82.17,0,0,1,10.95,8.58,72.66,72.66,0,0,1,9.31,10.48,50.25,50.25,0,0,1,6.23,11.17,26.87,26.87,0,0,1,2,10.3,13.73,13.73,0,0,1-2.84,8.4,14.13,14.13,0,0,1-8.68,4.8" transform="translate(-260.52 -2386.98)" fill="url(#New_Gradient_Swatch_copy)"/>
  <polygon points="70.17 57.34 36.55 17.87 54.27 15.64 81.86 45.89 70.17 57.34" fill="none"/>
  <path d="M318.18,2409.79c-3-3-6.34-2.79-9.72-1.45l-3.81-4L302,2405.4l4,4.14c-.63.34-1.25.72-1.87,1.07l-4.23-4.35-2.69,1,4.63,4.7-1.51.86-3.38,1.72,3.41,3.39s1.62-1.09,1.64-1c.52-.5,1.66-.29,2.57.48l13.72,13.83c.55.58.73,1.32.4,1.65l0,0-1.13,1.43,3.55,4.23,1.74-2.84,1-1.46,4.64,4.66,1.1-2.38-4.33-4.2,1.19-1.47,4.08,3.8,1.18-2.2-3.78-3.53c2.29-3.41,3.14-6.46.06-10.27-2.44-3-4.91-3.62-7.45-2.82C321,2414.05,320.1,2411.57,318.18,2409.79Zm5.92,11.93c3,3.2-.81,6.43-2,7.53l-6.18-6.34C317.28,2421.9,321,2418.4,324.1,2421.72Zm-9-8.25c3.15,3.58-.88,5.52-2.1,6.26l-5.65-5.93C308.55,2413,312.08,2410.08,315.07,2413.47Z" transform="translate(-260.52 -2386.98)" fill="#fff"/>
</svg>
